<?xml version="1.0" standalone="no"?>
<!DOCTYPE svg PUBLIC "-//W3C//DTD SVG 20010904//EN"
 "http://www.w3.org/TR/2001/REC-SVG-20010904/DTD/svg10.dtd">
<svg version="1.0" xmlns="http://www.w3.org/2000/svg"
 width="640.000000pt" height="427.000000pt" viewBox="0 0 640.000000 427.000000"
 preserveAspectRatio="xMidYMid meet">

<g transform="translate(0.000000,427.000000) scale(0.100000,-0.100000)"
fill="#000000" stroke="none">
<path d="M230 3980 c0 -170 -4 -290 -9 -290 -10 0 -171 37 -204 46 -14 4 -17
-1 -17 -28 l0 -33 88 -22 c58 -15 72 -20 42 -17 l-45 4 44 -14 c57 -19 135
-30 106 -16 -18 9 -17 10 5 5 14 -2 29 -5 33 -5 5 0 5 -4 2 -10 -3 -6 1 -7 9
-4 14 5 16 -26 14 -287 l-3 -294 -2 283 c-2 186 -7 282 -14 282 -6 0 -8 -37
-5 -107 2 -60 5 -190 5 -290 l1 -183 24 10 c13 5 26 7 27 6 2 -2 20 -6 40 -10
l36 -6 7 232 c7 248 24 426 42 449 6 8 28 43 49 79 22 36 45 71 52 78 7 7 13
17 13 22 0 5 17 26 38 47 21 21 41 45 45 53 4 12 7 12 15 2 6 -9 12 -6 21 14
6 15 15 24 18 20 3 -3 19 12 35 34 17 22 38 40 48 40 10 0 22 9 25 21 5 16 9
18 21 8 8 -6 18 -9 21 -5 4 4 1 11 -7 16 -12 7 -11 10 4 16 11 4 21 2 26 -6 4
-7 13 -9 19 -6 6 4 11 0 11 -8 0 -9 5 -16 11 -16 6 0 9 9 6 19 -4 16 9 31 28
31 1 0 11 -27 21 -60 14 -43 24 -60 37 -60 9 0 17 8 18 18 0 9 11 -5 23 -32
25 -55 53 -68 62 -30 7 29 15 30 37 6 23 -25 21 -32 -8 -32 -14 0 -25 -5 -25
-11 0 -7 20 -10 57 -7 42 2 58 -1 61 -11 3 -10 -1 -12 -17 -8 -16 4 -21 1 -21
-15 0 -13 5 -18 14 -15 9 4 28 -7 45 -22 23 -21 31 -25 35 -14 8 19 26 7 26
-18 0 -25 20 -25 27 1 3 11 9 20 12 20 8 0 10 14 12 63 0 23 4 27 20 22 11 -4
19 -2 19 4 0 6 -6 11 -12 11 -9 0 -8 3 2 10 8 5 16 20 18 32 1 13 5 46 9 73 6
47 7 48 14 20 7 -24 8 -21 5 17 -2 25 3 68 10 95 13 48 13 47 14 -62 1 -60 5
-102 9 -91 4 10 6 -12 4 -50 -1 -38 -3 -78 -3 -89 0 -15 -11 -24 -41 -33 -22
-7 -45 -9 -51 -6 -7 5 -8 2 -4 -5 5 -7 0 -18 -10 -26 -29 -21 -9 -29 21 -9
l27 18 40 -42 c38 -41 41 -42 104 -42 35 0 64 -4 64 -8 0 -26 -38 -51 -77 -50
-23 0 -46 -3 -52 -6 -6 -4 -21 0 -33 8 -12 9 -28 16 -35 16 -23 0 -14 -30 12
-40 41 -16 28 -30 -27 -30 -62 0 -90 -12 -63 -27 14 -8 15 -14 6 -32 -7 -11
-17 -21 -24 -21 -7 0 -6 -4 3 -10 11 -7 12 -10 2 -10 -25 0 -6 -23 22 -26 30
-3 66 25 66 52 0 9 6 14 13 12 7 -3 13 -26 14 -62 1 -56 1 -58 -23 -53 -16 3
-24 0 -24 -9 0 -8 -6 -11 -15 -8 -9 4 -14 12 -13 18 3 12 -3 16 -27 16 -8 0
-15 -8 -15 -17 0 -10 -9 -31 -20 -48 -11 -16 -20 -41 -21 -55 -1 -16 -3 -19
-6 -8 -2 10 -10 15 -19 11 -10 -4 -14 2 -14 22 0 23 -4 26 -27 23 -23 -2 -29
-9 -31 -33 -4 -35 17 -143 29 -151 5 -3 9 -14 9 -25 0 -10 4 -19 9 -19 5 0 7
-10 4 -22 -3 -15 -2 -19 4 -11 7 9 22 2 58 -28 28 -23 52 -42 53 -44 2 -2 -23
5 -55 14 -36 12 -61 26 -67 38 -8 17 -17 19 -51 15 -27 -3 -53 1 -73 12 -55
28 -39 -8 23 -54 57 -42 65 -46 65 -30 0 6 -6 10 -14 10 -8 0 -16 7 -20 15
-10 27 44 11 80 -23 26 -24 80 -50 121 -57 28 -4 32 -3 27 12 -5 16 -3 15 10
-1 9 -11 16 -29 16 -40 0 -18 -6 -21 -38 -20 -21 0 -42 3 -47 6 -50 30 -85 46
-85 39 0 -9 88 -91 139 -129 17 -13 31 -31 31 -40 0 -13 4 -12 23 5 12 11 41
30 63 42 39 19 114 94 114 113 0 13 -17 9 -30 -7 -7 -8 -17 -15 -22 -15 -15 0
-100 -61 -126 -89 -19 -22 -17 -13 13 54 59 132 71 150 94 148 18 -2 21 3 22
35 2 57 -2 86 -13 100 -7 8 -7 12 1 12 6 0 22 -21 36 -47 33 -65 41 -73 107
-116 31 -21 64 -50 74 -65 24 -35 84 -171 84 -189 0 -8 4 -12 9 -8 9 5 -1 -44
-13 -63 -3 -5 4 -28 16 -51 19 -40 20 -43 3 -61 -17 -18 -16 -24 4 -117 44
-200 46 -208 64 -205 9 2 17 -2 17 -8 0 -5 -5 -10 -11 -10 -8 0 -8 -4 -1 -12
5 -7 11 -22 13 -32 4 -19 4 -19 23 0 19 18 19 18 14 -9 -6 -32 2 -34 27 -7 10
11 15 20 11 20 -3 0 0 14 9 30 10 20 16 58 16 113 0 119 0 119 -29 114 -19 -4
-23 -1 -19 14 5 20 -7 26 -18 9 -13 -21 -24 -9 -13 15 13 30 34 33 43 6 8 -26
32 -34 40 -13 3 9 1 18 -5 20 -5 2 -15 13 -21 24 -10 18 -8 19 13 13 16 -5 20
-4 13 3 -5 6 -23 13 -39 16 -37 7 -54 22 -39 37 8 8 19 6 41 -5 36 -19 42 -19
42 -6 0 5 -19 14 -42 20 -29 8 -37 14 -28 20 8 5 26 6 40 4 22 -5 25 -2 25 25
1 17 -2 31 -5 32 -61 7 -71 6 -66 -7 3 -8 1 -14 -5 -14 -6 0 -9 -7 -6 -15 4
-8 2 -17 -2 -20 -5 -2 -11 9 -15 27 -8 39 15 58 60 51 35 -6 45 7 34 47 l-6
25 -8 -22 c-6 -19 -14 -23 -47 -21 -31 1 -39 5 -39 20 0 21 35 25 44 6 3 -7 3
-3 0 10 -4 18 -1 25 15 29 12 3 21 9 21 13 0 10 59 24 67 16 3 -3 0 -12 -7
-21 -18 -21 -7 -19 20 5 24 21 50 26 50 10 0 -5 -13 -31 -28 -57 -34 -58 -43
-95 -31 -136 5 -17 4 -37 -1 -47 -7 -13 -6 -20 5 -24 19 -7 19 -26 0 -26 -24
0 -6 -28 26 -39 39 -13 38 -32 -1 -24 -26 5 -29 3 -24 -12 4 -9 25 -25 48 -35
37 -17 38 -19 14 -19 -15 -1 -33 6 -42 14 -15 16 -33 4 -21 -15 3 -5 1 -10 -5
-10 -6 0 -8 -5 -5 -10 4 -6 2 -17 -5 -25 -7 -9 -8 -15 0 -20 5 -3 10 -22 10
-41 0 -26 -3 -33 -12 -28 -9 5 -8 2 1 -9 8 -10 11 -20 8 -23 -3 -3 -1 -17 4
-31 8 -21 7 -24 -6 -19 -20 7 -19 2 11 -50 14 -24 21 -44 15 -44 -6 0 -11 4
-11 8 0 10 -37 9 -47 -2 -5 -4 -1 -6 7 -4 10 2 14 -3 12 -16 -2 -13 1 -16 10
-10 10 6 10 4 -1 -9 -18 -23 -34 -21 -28 3 6 22 -8 28 -16 8 -3 -9 -11 -4 -25
12 -18 21 -21 22 -22 8 0 -10 -4 -18 -8 -18 -5 0 -3 -30 4 -67 8 -38 16 -120
19 -182 5 -97 8 -118 25 -133 11 -10 20 -22 20 -25 0 -4 -5 -2 -12 5 -25 25
-27 10 -7 -43 25 -67 17 -87 -45 -105 -43 -12 -72 -7 -61 10 3 5 1 11 -4 14
-15 10 -21 -23 -7 -37 12 -11 11 -15 -4 -25 -14 -8 -21 -8 -29 2 -18 21 -131
280 -131 299 0 10 -14 45 -31 79 -17 33 -32 78 -34 99 -4 35 -2 39 20 39 13 0
25 4 27 10 2 5 24 12 49 14 25 2 61 11 80 20 19 9 25 14 14 11 -11 -2 -47 -7
-80 -11 -33 -4 -63 -11 -66 -16 -7 -11 -39 0 -39 14 0 5 5 6 10 3 12 -7 80 13
95 28 7 6 -1 8 -23 3 -21 -3 -31 -2 -27 4 3 6 11 10 17 10 5 0 23 9 38 20 15
11 52 26 81 34 53 14 53 15 16 15 -20 1 -53 9 -72 20 -31 16 -33 19 -15 24 33
9 22 27 -17 27 -36 0 -36 0 -18 20 28 31 12 33 -38 5 -35 -19 -60 -25 -106
-25 -34 0 -61 4 -61 9 0 4 11 6 25 3 34 -6 97 7 90 19 -4 5 1 9 9 9 9 0 16 5
16 11 0 6 7 8 18 4 12 -4 10 0 -6 16 -13 12 -20 24 -15 28 8 6 12 24 15 74 1
22 6 27 27 27 l25 0 -24 17 c-14 9 -27 18 -29 19 -2 2 1 9 7 16 6 7 10 15 11
18 0 21 17 40 35 40 14 0 17 3 8 8 -9 6 -5 12 13 20 14 7 32 12 40 12 8 0 15
5 15 11 0 7 -10 9 -26 5 -18 -5 -32 -2 -46 11 -19 17 -20 17 -34 -1 -7 -10
-11 -22 -9 -26 3 -4 -2 -13 -10 -20 -8 -7 -15 -20 -15 -29 0 -25 -43 -148 -71
-203 -5 -10 -9 -25 -9 -34 0 -11 -5 -14 -17 -9 -10 4 -31 11 -48 14 -28 7 -29
8 -10 19 14 8 16 12 5 12 -8 0 -26 3 -39 7 -16 4 -22 2 -18 -4 4 -6 1 -13 -7
-16 -21 -8 -8 27 19 53 l23 21 6 -25 c4 -16 13 -26 24 -26 11 0 13 3 5 8 -8 5
-2 12 19 21 26 12 29 16 16 25 -8 6 -13 17 -10 24 3 11 0 12 -16 3 -30 -16
-31 -15 -25 32 l6 42 -27 -29 c-20 -21 -30 -26 -39 -17 -18 18 -27 13 -27 -13
0 -16 -11 -33 -31 -48 -17 -13 -54 -43 -82 -68 -29 -25 -44 -36 -34 -24 9 11
17 25 17 31 0 6 6 14 13 16 9 4 9 6 0 6 -6 1 -15 -3 -18 -9 -11 -18 -38 -12
-31 7 9 24 26 157 20 162 -11 11 -16 -4 -29 -94 -4 -27 -11 -55 -17 -62 -5 -6
-8 -20 -7 -30 2 -10 -3 -29 -10 -41 -7 -13 -10 -27 -6 -30 3 -3 8 4 12 16 6
24 18 28 28 11 9 -14 -24 -49 -47 -49 -10 0 -18 5 -18 10 0 27 -24 5 -43 -40
-21 -50 -21 -50 -66 -49 -58 1 -97 13 -93 27 1 7 -3 12 -10 12 -7 0 -26 13
-43 29 -27 26 -95 52 -95 36 0 -14 29 -35 48 -35 16 0 36 -11 82 -47 2 -2 -1
-7 -7 -11 -6 -4 -32 -24 -57 -46 -39 -32 -44 -41 -34 -54 11 -13 10 -14 -10
-8 -27 9 -28 2 -4 -32 11 -15 24 -42 30 -60 11 -31 10 -32 -11 -20 -12 7 -26
12 -32 13 -5 0 -10 9 -10 20 -1 19 -23 74 -35 85 -3 3 -10 13 -15 24 -13 23
-70 29 -90 10 -7 -8 -16 -10 -19 -5 -3 5 -15 7 -26 4 -15 -4 -19 -11 -16 -27
3 -12 0 -9 -6 7 -13 29 -39 35 -57 13 -9 -11 -7 -21 8 -47 11 -18 18 -36 15
-41 -9 -14 -24 2 -24 26 0 27 -18 46 -42 46 -24 0 -23 -13 5 -46 21 -25 23
-30 11 -53 -8 -15 -10 -29 -4 -36 5 -6 13 -22 18 -36 10 -24 8 -25 -19 -21
-36 5 -82 -6 -74 -17 3 -5 0 -11 -7 -13 -6 -2 6 -4 28 -4 43 -1 167 -27 160
-34 -2 -3 10 -6 27 -6 37 -2 57 -6 74 -17 9 -6 11 -3 7 7 -3 9 -2 16 4 16 9 0
32 -51 32 -71 0 -5 -11 -9 -25 -9 -14 0 -25 -5 -25 -11 0 -7 12 -10 29 -7 17
2 28 1 25 -4 -3 -4 -1 -8 4 -8 5 0 19 -22 31 -50 16 -37 25 -48 37 -43 14 5
15 3 6 -14 -6 -11 -18 -25 -26 -32 -9 -8 -13 -18 -10 -23 4 -5 -8 -3 -24 6
-17 9 -38 16 -46 16 -8 0 -24 10 -35 22 l-20 21 -10 -24 c-7 -18 -10 -19 -10
-6 -1 10 -8 20 -16 23 -8 4 -15 13 -15 21 0 8 -5 13 -12 11 -6 -2 -25 11 -42
30 -16 18 -46 40 -66 48 -21 8 -42 26 -48 39 -6 13 -38 42 -70 64 l-59 40 8
43 c5 28 4 47 -3 53 -8 7 -9 6 -4 -2 3 -6 2 -14 -4 -18 -5 -3 -11 0 -11 7 -5
54 30 120 73 141 56 25 78 30 79 15 1 -7 7 14 14 47 8 33 20 85 29 115 9 30
16 67 16 82 0 15 6 31 14 35 18 11 36 47 36 72 0 12 5 21 10 21 6 0 10 7 10
15 0 8 -6 15 -13 15 -7 0 -17 8 -24 18 -8 14 -20 18 -41 14 -24 -3 -33 2 -51
26 -11 17 -21 39 -21 50 0 11 -13 44 -29 74 -19 37 -27 64 -24 85 6 39 -21 91
-52 103 -14 5 -25 14 -25 19 0 13 -26 27 -67 36 -26 5 -33 3 -33 -9 0 -9 -4
-16 -8 -16 -5 0 -18 -18 -30 -39 -12 -21 -29 -41 -37 -45 -21 -8 -19 8 5 29
26 24 26 55 1 55 -11 0 -23 -5 -26 -10 -4 -6 -15 -8 -26 -5 -15 5 -17 3 -12
-11 5 -13 3 -16 -10 -11 -24 9 -153 -24 -134 -35 20 -11 53 -16 107 -18 l45
-1 -30 -16 c-16 -9 -49 -36 -72 -60 -24 -24 -43 -41 -43 -38 0 19 33 65 50 70
11 4 18 10 15 15 -3 5 -22 -1 -43 -13 -25 -14 -33 -16 -25 -6 18 22 6 30 -23
17 l-24 -11 2 -336 3 -336 28 -3 c36 -4 34 -37 -3 -37 -24 0 -25 -2 -28 -78
-3 -73 -1 -79 18 -84 l21 -6 -21 -14 c-31 -22 -24 -36 10 -18 33 17 50 19 50
5 0 -9 -9 -18 -45 -46 -19 -14 -18 -15 13 -11 29 3 33 1 29 -15 -3 -10 -1 -21
4 -24 17 -10 -11 -33 -47 -40 l-34 -6 0 -894 0 -894 1388 0 1387 0 12 27 c7
15 13 38 13 52 0 15 5 33 11 41 10 15 8 -10 -8 -92 l-5 -28 100 0 c56 0 104 4
107 10 3 5 11 10 16 10 6 0 7 -4 4 -10 -4 -6 10 -10 36 -10 38 0 41 2 35 23
-3 12 -6 26 -6 31 0 4 -7 6 -15 3 -11 -5 -13 1 -9 26 4 28 3 29 -5 10 -6 -13
-15 -23 -21 -23 -5 0 -10 -6 -10 -14 0 -8 -4 -17 -10 -21 -5 -3 -5 7 1 25 6
17 16 27 22 23 6 -4 8 2 4 16 -4 17 -2 21 11 19 9 -2 18 -12 20 -23 2 -11 10
-25 17 -31 8 -6 19 -23 24 -37 l11 -27 110 0 110 0 2 48 c1 36 2 39 5 15 3
-23 10 -33 22 -33 9 0 26 -7 37 -15 28 -21 634 -22 634 -1 0 8 -6 16 -12 18
-9 3 -12 28 -10 85 l2 80 -46 7 c-26 3 -75 6 -110 6 -57 0 -64 2 -64 20 0 11
7 20 15 20 19 0 19 9 0 34 -8 11 -15 31 -15 45 0 21 2 23 11 11 9 -12 10 -12
5 3 -3 10 -6 22 -6 25 0 4 -5 0 -10 -8 -11 -17 -12 -10 -15 93 -1 44 2 57 13
57 11 0 14 11 10 49 -6 61 0 72 43 76 19 1 44 6 57 10 19 6 24 3 29 -13 3 -12
14 -24 24 -27 17 -6 17 -8 4 -21 -8 -9 -15 -19 -15 -24 0 -15 41 -39 56 -33 8
3 14 0 14 -6 0 -6 -6 -11 -12 -12 -7 0 -3 -4 9 -9 14 -6 21 -15 17 -23 -3 -10
3 -16 19 -19 22 -4 26 2 52 78 22 69 35 91 72 125 l45 41 72 -4 c79 -6 212
-42 238 -65 16 -14 18 -14 26 8 8 20 10 16 14 -24 7 -61 26 -81 101 -106 82
-28 101 -28 92 2 -11 35 -6 68 15 109 14 26 16 38 7 38 -7 1 -5 6 5 14 17 12
17 14 -2 31 -11 10 -20 26 -20 36 0 16 -57 45 -68 34 -3 -3 -11 0 -18 6 -19
15 -71 2 -55 -14 6 -6 11 -14 11 -19 0 -13 -70 -40 -90 -35 -13 3 -20 0 -20
-9 0 -8 -6 -11 -16 -7 -13 5 -13 7 -2 14 11 7 11 9 0 9 -8 0 -12 8 -10 17 3
14 12 17 46 15 48 -4 68 19 37 42 -20 15 -16 49 6 54 9 2 37 -11 62 -28 25
-16 48 -30 52 -30 4 0 4 13 0 30 -4 16 -4 39 0 50 5 17 10 19 21 9 8 -6 14
-17 14 -24 0 -7 10 -19 23 -28 22 -14 70 -86 49 -73 -6 3 -13 2 -17 -4 -3 -5
-1 -10 4 -10 6 0 11 -4 11 -10 0 -5 8 -19 17 -30 23 -27 95 -27 188 0 50 15
85 19 121 15 41 -5 55 -2 76 15 14 11 40 20 57 20 17 0 55 12 84 27 28 15 53
28 55 29 2 1 5 14 8 29 6 34 38 98 56 112 7 6 29 16 49 22 35 11 37 15 63 103
14 51 22 96 18 100 -4 4 -27 -2 -50 -12 -32 -15 -49 -17 -63 -10 -23 13 -161
3 -170 -12 -4 -6 -15 4 -25 21 -17 29 -22 31 -54 26 -24 -4 -60 2 -113 20 -82
26 -103 30 -109 18 -6 -14 -72 -59 -105 -72 -18 -8 -33 -19 -33 -26 0 -8 -7
-15 -16 -17 -14 -3 -422 17 -433 20 -2 1 3 10 11 20 9 9 26 37 38 62 36 71 32
70 113 48 41 -11 116 -21 172 -24 55 -2 119 -6 143 -10 68 -11 48 10 -30 31
-40 11 -78 20 -83 20 -6 0 -21 8 -34 17 l-24 17 27 11 c15 5 78 10 139 10 81
0 155 8 267 29 85 17 157 26 160 21 12 -20 104 -51 132 -45 15 4 26 10 23 15
-9 14 24 20 107 20 59 0 79 -3 76 -12 -3 -7 -18 -14 -35 -15 -17 0 -57 -7 -90
-13 -48 -10 -54 -14 -36 -21 12 -4 49 -11 82 -15 66 -7 67 -8 39 -83 -7 -21
-7 -22 7 -11 44 37 68 98 94 246 14 78 30 126 71 210 29 60 64 134 78 164 15
30 53 82 85 115 47 46 61 67 65 98 3 26 13 44 28 54 13 8 24 21 24 28 0 8 7
21 16 30 16 15 15 18 -4 37 -16 17 -18 24 -9 39 12 20 -8 54 -26 42 -5 -3 -7
-1 -3 5 3 6 3 13 -2 16 -4 2 -13 -4 -20 -15 -10 -15 -10 -19 0 -20 7 0 2 -5
-12 -10 -32 -13 -53 13 -44 54 3 17 0 36 -9 50 -9 15 -14 42 -12 75 2 45 0 53
-23 68 -20 13 -29 14 -44 5 -25 -15 -23 -3 5 25 12 13 35 39 52 58 16 19 35
32 42 29 18 -7 43 15 36 33 -3 8 -18 14 -33 14 -20 0 -29 6 -33 21 -5 17 -2
20 14 16 29 -8 23 6 -11 25 -17 10 -32 13 -35 7 -4 -5 -11 -9 -18 -9 -8 0 -8
3 1 12 7 7 12 21 12 32 -1 20 -2 20 -14 4 -7 -10 -16 -15 -19 -11 -4 3 -7 1
-7 -6 0 -8 -8 -6 -24 4 -14 10 -27 12 -30 6 -3 -5 -16 -8 -29 -7 -17 2 -22 -3
-23 -21 -1 -12 2 -23 7 -23 5 0 8 -5 6 -12 -1 -7 3 -12 8 -13 6 0 16 -4 23 -8
8 -6 12 -2 12 11 0 27 9 32 35 20 19 -9 24 -18 22 -48 -1 -23 -6 -37 -14 -37
-7 0 -13 6 -13 14 0 19 -30 29 -40 13 -7 -11 -16 -11 -44 -3 -42 13 -47 2 -10
-25 26 -19 27 -19 8 -46 -17 -26 -17 -29 -1 -38 16 -9 16 -11 -4 -27 -19 -15
-28 -16 -52 -7 -26 10 -31 8 -46 -14 -9 -14 -25 -34 -36 -45 -11 -12 -28 -33
-38 -48 -9 -15 -22 -27 -27 -27 -20 0 -9 26 31 70 40 44 40 45 24 72 -11 20
-12 26 -3 23 7 -3 18 3 23 14 6 10 18 33 29 51 17 31 17 35 2 61 -9 15 -16 32
-16 39 0 14 51 59 68 60 7 0 33 11 58 24 37 20 51 22 77 15 63 -18 87 -12 103
26 17 40 20 42 48 16 12 -10 31 -22 43 -25 19 -6 25 -2 34 21 30 79 108 222
140 255 34 36 39 38 97 38 l62 0 0 575 0 575 -118 0 -119 0 -28 -80 c-43 -125
-33 -120 -225 -130 -421 -23 -568 -30 -732 -36 -98 -4 -178 -9 -178 -12 0 -3
8 -12 19 -21 10 -9 21 -26 25 -38 4 -13 12 -23 17 -23 5 0 9 -9 9 -20 0 -30
-17 -24 -23 9 -3 15 -18 42 -32 59 -49 58 -138 67 -232 21 -41 -20 -45 -24
-26 -29 22 -5 22 -5 3 -30 l-19 -25 -8 22 c-10 28 -23 19 -51 -34 -15 -30 -18
-43 -9 -47 7 -3 2 -3 -10 0 -13 3 -23 1 -23 -4 0 -10 44 -32 65 -32 8 0 15 -4
15 -9 0 -17 -52 -146 -61 -152 -6 -3 -3 -18 6 -35 19 -36 19 -44 0 -44 -9 0
-12 -6 -8 -17 5 -12 3 -14 -7 -8 -10 6 -12 4 -7 -8 3 -10 2 -17 -3 -17 -5 0
-12 9 -15 20 -3 11 -13 20 -20 20 -8 0 -19 9 -25 21 -9 16 -8 26 5 45 8 13 20
24 25 24 13 0 13 50 0 70 -8 12 -10 9 -10 -12 0 -15 -4 -29 -9 -33 -6 -3 -7
10 -4 32 5 32 4 36 -8 27 -13 -11 -120 -25 -216 -29 l-43 -2 -2 111 c-3 148 1
207 14 224 8 9 8 16 0 24 -7 7 -12 44 -12 90 l0 78 73 1 c116 2 291 9 447 18
118 6 67 8 -274 9 -413 2 -419 2 -402 -17 16 -18 17 -40 11 -275 l-8 -255 -37
19 c-39 20 -155 139 -173 177 -18 39 -3 53 60 54 32 1 72 5 88 10 17 5 -72 6
-215 4 -244 -5 -334 0 -309 16 16 9 18 7 -51 41 -60 30 -112 60 -120 69 -3 3
-22 12 -42 19 -20 8 -35 17 -32 22 3 4 0 8 -5 8 -6 0 -11 4 -11 9 0 17 118 31
350 41 393 17 419 19 431 41 9 19 -7 19 -803 19 l-813 0 29 -25 29 -25 -29 4
c-16 3 -57 7 -92 10 -35 3 -73 13 -85 21 -12 8 -33 15 -47 15 -23 0 -21 -2 15
-27 51 -33 49 -32 43 -38 -3 -3 -33 10 -66 30 -45 26 -71 35 -104 34 -37 0
-40 -2 -25 -12 10 -7 45 -29 77 -49 l58 -38 4 -182 c5 -167 3 -187 -15 -233
-25 -62 -35 -75 -51 -69 -10 4 -10 15 1 57 7 28 12 56 10 61 -6 18 -40 -68
-45 -114 -5 -43 -21 -79 -49 -108 -7 -7 -13 -19 -13 -25 0 -7 9 -1 20 13 22
29 20 31 52 -41 14 -31 42 -74 62 -96 47 -53 51 -105 9 -127 -28 -14 -82 -66
-70 -66 4 0 26 12 48 26 40 25 71 25 36 0 -21 -16 -22 -27 -2 -20 20 8 19 -3
-1 -23 -11 -12 -14 -26 -9 -51 5 -28 4 -34 -9 -29 -8 3 -32 9 -53 13 -21 4
-42 13 -48 19 -14 17 -45 27 -45 15 0 -6 -6 -10 -14 -10 -8 0 -18 -5 -22 -12
-5 -8 -2 -9 9 -5 10 3 17 3 17 -2 0 -11 40 -26 109 -42 30 -6 65 -22 77 -34
13 -13 25 -20 28 -17 3 3 6 1 6 -5 0 -15 -32 -19 -171 -22 -122 -1 -171 8
-140 28 11 7 10 11 -7 20 -20 11 -21 10 -16 -19 6 -27 4 -30 -20 -30 -25 0
-26 2 -26 53 0 28 3 62 6 74 5 19 9 21 26 12 15 -8 18 -17 14 -37 l-6 -27 23
28 c28 33 37 27 37 -25 0 -21 5 -38 10 -38 6 0 10 24 10 53 0 29 6 59 13 66
10 10 9 11 -4 6 -10 -4 -20 -1 -24 4 -3 6 -11 9 -16 5 -5 -3 -23 -3 -39 1 -28
6 -30 10 -30 48 1 23 5 62 11 87 5 25 11 63 14 85 l3 40 -13 -35 c-7 -19 -14
-47 -14 -62 -1 -26 -21 -42 -21 -17 0 5 -5 7 -10 4 -6 -3 -10 1 -10 9 0 9 4
16 9 16 5 0 5 15 1 34 -4 19 -5 37 -2 40 3 4 -1 6 -9 6 -11 0 -11 2 1 10 10 6
11 10 3 10 -7 0 -13 5 -13 11 0 5 4 8 9 5 16 -10 30 19 32 69 1 28 -2 59 -6
69 -6 14 -5 17 3 12 9 -5 12 6 12 38 0 35 5 48 20 56 11 6 20 18 20 26 0 8 -4
12 -10 9 -6 -3 -9 9 -7 32 2 33 -1 38 -22 41 -21 3 -23 8 -18 38 6 38 -10 54
-53 54 -5 0 -10 9 -10 20 0 10 -7 23 -15 27 -12 7 -15 35 -16 141 l0 132 -665
0 -664 0 0 -56 c0 -64 -14 -98 -37 -90 -13 5 -14 4 -4 -8 7 -8 8 -17 3 -20
-16 -9 -22 20 -22 100 l0 74 -75 0 -76 0 5 -300 c4 -196 2 -300 -4 -300 -6 0
-10 108 -10 300 l0 300 -40 0 -40 0 0 -290z m1214 225 c3 -8 1 -15 -4 -15 -6
0 -10 7 -10 15 0 8 2 15 4 15 2 0 6 -7 10 -15z m1848 -86 c58 -55 48 -56 -22
-1 -65 51 -66 52 -48 52 9 0 41 -23 70 -51z m-542 18 c0 -5 11 -20 25 -33 46
-42 45 -101 -1 -147 -38 -38 -83 -36 -123 4 -46 46 -43 84 14 147 33 37 50 49
65 45 11 -3 20 -10 20 -16z m-408 -154 c-2 -84 -8 -153 -12 -153 -10 0 -13
203 -4 270 13 96 21 35 16 -117z m-1056 -23 c-4 -29 -3 -40 6 -41 10 0 10 -2
0 -6 -10 -4 -10 -9 3 -23 17 -19 7 -34 -17 -25 -14 6 -15 38 -2 103 9 46 18
40 10 -8z m-1019 -167 c-2 -38 -3 -7 -3 67 0 74 1 105 3 68 2 -38 2 -98 0
-135z m1073 167 c0 -5 -5 -10 -11 -10 -5 0 -7 5 -4 10 3 6 8 10 11 10 2 0 4
-4 4 -10z m1165 -90 c7 0 26 -6 42 -14 15 -8 40 -19 56 -25 32 -12 39 -56 10
-64 -13 -3 -10 -5 7 -6 l25 -2 -25 -21 c-24 -20 -24 -21 -3 -16 16 4 20 2 16
-8 -3 -8 -6 -14 -7 -14 0 0 -18 6 -40 14 -33 11 -35 14 -16 19 12 3 19 10 15
16 -8 14 -58 14 -72 0 -7 -7 -13 -7 -17 0 -4 5 -13 8 -22 4 -8 -3 -24 3 -35
13 -16 14 -19 15 -14 2 4 -9 0 -18 -9 -21 -19 -7 -19 -6 -6 27 6 16 6 27 0 31
-18 11 -10 27 11 22 16 -4 18 -3 8 9 -19 23 -3 64 26 64 17 0 26 6 27 18 0 9
3 2 5 -15 3 -19 10 -33 18 -33z m2602 18 c-3 -8 -6 -5 -6 6 -1 11 2 17 5 13 3
-3 4 -12 1 -19z m-14 -8 c3 -11 1 -18 -4 -14 -5 3 -9 12 -9 20 0 20 7 17 13
-6z m-22 -60 c5 0 9 -4 9 -10 0 -5 -7 -7 -15 -4 -8 4 -14 16 -14 28 1 16 2 17
6 4 2 -10 9 -18 14 -18z m-1813 -50 c45 -29 82 -57 82 -60 0 -12 -105 7 -142
25 -37 18 -58 60 -43 85 9 14 6 15 103 -50z m-1358 36 c0 -3 -4 -8 -10 -11 -5
-3 -10 -1 -10 4 0 6 5 11 10 11 6 0 10 -2 10 -4z m77 -2 c-3 -3 -12 -4 -19 -1
-8 3 -5 6 6 6 11 1 17 -2 13 -5z m360 -36 c-3 -8 -6 -5 -6 6 -1 11 2 17 5 13
3 -3 4 -12 1 -19z m-452 -56 c-3 -3 -11 0 -18 7 -9 10 -8 11 6 5 10 -3 15 -9
12 -12z m1315 -8 c0 -2 -9 0 -20 6 -11 6 -20 13 -20 16 0 2 9 0 20 -6 11 -6
20 -13 20 -16z m-907 -14 c-3 -11 -12 -20 -20 -20 -11 0 -11 4 -3 20 6 11 15
20 19 20 5 0 7 -9 4 -20z m1124 -12 c31 -30 33 -35 33 -106 0 -46 -4 -71 -10
-67 -5 3 -10 -1 -10 -9 0 -8 7 -19 16 -24 12 -7 17 -31 20 -108 6 -132 6 -136
5 -159 0 -11 1 -46 3 -77 l4 -58 -67 0 c-67 0 -68 0 -63 25 6 31 -6 33 -18 3
-5 -15 -9 -17 -9 -7 -1 23 -31 19 -31 -4 0 -11 -2 -18 -4 -16 -5 5 -19 116
-18 134 1 6 3 41 5 78 2 38 9 72 15 76 6 3 12 24 15 46 4 39 4 39 7 -10 l3
-50 7 45 7 45 1 -37 c1 -21 7 -38 12 -38 9 0 17 251 10 328 -2 32 28 28 67
-10z m-1540 0 c2 -18 0 -20 -7 -8 -12 18 -13 30 -2 30 4 0 9 -10 9 -22z m33 1
c0 -6 -4 -7 -10 -4 -5 3 -10 11 -10 16 0 6 5 7 10 4 6 -3 10 -11 10 -16z m40
1 c0 -5 -2 -10 -4 -10 -3 0 -8 5 -11 10 -3 6 -1 10 4 10 6 0 11 -4 11 -10z
m294 -19 c3 -5 -5 -16 -19 -25 -14 -9 -25 -12 -25 -7 0 5 9 13 20 16 11 4 18
11 15 16 -4 5 -4 9 -1 9 3 0 7 -4 10 -9z m946 -174 c0 -96 -4 -146 -10 -142
-5 3 -10 17 -10 30 0 13 -4 27 -10 30 -11 7 -14 223 -3 251 6 16 7 16 20 -2 9
-13 13 -58 13 -167z m2465 163 c-8 -24 15 -27 48 -6 12 8 57 18 100 22 82 7
88 3 66 -37 -9 -18 -19 -20 -72 -17 -55 3 -62 1 -60 -15 0 -10 -2 -16 -5 -13
-3 3 -13 -8 -23 -24 -25 -41 -66 -39 -82 3 -6 17 -15 18 -91 12 -90 -8 -126
-2 -126 20 0 21 -13 25 -46 15 -16 -4 -24 -9 -18 -9 7 -1 14 -8 18 -16 5 -13
-13 -15 -124 -15 -134 0 -172 12 -74 25 50 6 68 20 27 20 -9 0 -18 5 -20 12
-4 12 82 20 310 27 71 2 131 7 134 10 4 3 15 6 25 6 15 0 18 -5 13 -20z
m-4092 -7 c15 -8 6 -23 -14 -23 -28 0 -61 19 -54 31 6 8 47 3 68 -8z m2549
-55 c3 -35 4 -162 2 -283 l-2 -220 -234 -3 -233 -2 -11 45 c-9 40 -8 45 8 51
21 6 24 22 4 30 -16 6 -10 44 10 60 15 12 13 36 -6 58 -10 13 -10 20 -2 28 16
16 15 28 -3 28 -19 0 -19 14 0 30 8 7 12 16 9 21 -2 5 7 11 21 15 26 6 35 24
13 24 -7 0 -14 11 -14 25 -2 19 5 27 32 37 l34 12 -25 13 -25 14 30 29 c20 20
42 30 63 31 46 2 289 15 308 17 13 2 17 -11 21 -60z m-1838 29 c-3 -9 -12 -13
-20 -10 -12 4 -11 8 3 18 21 16 26 14 17 -8z m-2067 7 c-3 -3 -12 -4 -19 -1
-8 3 -5 6 6 6 11 1 17 -2 13 -5z m2130 -41 c-3 -10 -5 -4 -5 12 0 17 2 24 5
18 2 -7 2 -21 0 -30z m113 2 c0 -5 -5 -3 -10 5 -5 8 -10 20 -10 25 0 6 5 3 10
-5 5 -8 10 -19 10 -25z m3707 -37 c-2 -13 -4 -3 -4 22 0 25 2 35 4 23 2 -13 2
-33 0 -45z m-3599 27 c-3 -3 -9 2 -12 12 -6 14 -5 15 5 6 7 -7 10 -15 7 -18z
m-325 -12 c7 -39 2 -40 -16 -4 -12 24 -13 31 -2 31 7 0 15 -12 18 -27z m48
-14 c10 -47 3 -49 -15 -4 -19 45 -19 48 -4 43 7 -3 16 -20 19 -39z m323 22
c17 -19 17 -19 -5 -14 -17 5 -20 3 -14 -7 5 -8 4 -11 -3 -7 -5 4 -8 16 -5 27
6 24 6 24 27 1z m613 -178 c-2 -38 -3 -7 -3 67 0 74 1 105 3 68 2 -38 2 -98 0
-135z m-1617 157 c8 -5 11 -10 5 -10 -5 0 -17 5 -25 10 -8 5 -10 10 -5 10 6 0
17 -5 25 -10z m826 -15 c3 -14 10 -25 15 -25 5 0 9 -5 9 -11 0 -18 42 -46 65
-44 18 2 22 -2 22 -26 0 -32 -6 -36 -25 -17 -10 10 -14 8 -18 -10 -4 -12 -10
-22 -15 -22 -4 0 -6 -9 -4 -19 3 -14 -5 -22 -27 -30 -17 -6 -34 -11 -37 -11
-3 0 -6 54 -6 120 0 115 7 149 21 95z m-89 -22 c-3 -10 -5 -4 -5 12 0 17 2 24
5 18 2 -7 2 -21 0 -30z m-677 23 c0 -9 -30 -14 -35 -6 -4 6 3 10 14 10 12 0
21 -2 21 -4z m869 -36 c17 -22 25 -37 17 -34 -13 5 -61 74 -52 74 1 0 17 -18
35 -40z m2401 -5 c-10 -12 -9 -15 6 -15 11 0 15 -4 9 -8 -5 -4 -11 -15 -11
-25 -2 -15 1 -16 14 -5 14 12 14 10 3 -12 l-12 -25 22 25 22 25 -7 -25 c-6
-23 -6 -23 7 -7 8 9 23 17 33 17 14 0 15 3 6 8 -7 5 -11 15 -8 23 15 51 12 48
58 34 24 -7 61 -21 82 -30 22 -9 66 -18 99 -20 57 -4 94 -15 49 -15 -11 0 -24
-5 -27 -11 -4 -6 -13 -8 -19 -6 -7 3 -19 1 -27 -4 -9 -6 9 -9 51 -9 36 0 72
-5 80 -10 8 -5 13 -10 10 -11 -3 0 -15 -2 -27 -3 -13 -2 -26 -6 -30 -10 -11
-10 17 -25 36 -19 14 4 14 3 1 -6 -26 -18 0 -26 86 -25 76 1 84 0 84 -17 0
-17 -31 -33 -56 -28 -23 4 -34 -3 -34 -21 0 -11 -7 -20 -15 -20 -9 0 -13 -7
-9 -17 2 -10 -5 2 -18 27 l-22 45 -9 -47 c-6 -28 -16 -48 -24 -48 -8 0 -13
-12 -13 -30 0 -16 -4 -30 -10 -30 -5 0 -10 5 -10 11 0 6 -6 9 -14 6 -9 -4 -16
3 -20 18 -4 16 -11 22 -21 19 -16 -7 -20 6 -6 22 12 13 23 64 13 64 -11 0 -57
-88 -49 -96 3 -4 2 -15 -4 -26 -10 -18 -8 -19 13 -13 12 4 25 12 26 16 5 12
22 12 22 0 0 -5 -15 -18 -32 -30 -18 -11 -30 -21 -26 -21 5 0 -8 -21 -27 -46
-19 -25 -35 -51 -35 -58 0 -14 -38 -106 -44 -106 -8 0 4 104 13 113 6 6 11 18
11 27 0 9 3 20 7 24 4 4 8 25 9 47 1 25 12 52 28 74 29 38 35 68 11 59 -19 -8
-19 4 -1 25 7 9 17 27 20 41 7 24 6 23 -23 -8 -36 -38 -37 -37 -12 21 19 43
19 44 1 40 -10 -3 -23 -17 -29 -31 -15 -39 -55 -175 -57 -192 -1 -8 -2 -19 -3
-25 -1 -5 -6 -3 -11 5 -9 13 -10 13 -10 0 0 -8 -11 -28 -25 -44 -14 -16 -25
-38 -25 -50 0 -20 0 -20 16 2 8 12 20 22 27 22 8 0 8 -3 -1 -12 -7 -7 -12 -22
-12 -33 0 -12 -3 -25 -7 -29 -17 -17 -40 -97 -35 -122 3 -19 1 -25 -7 -20 -6
4 -11 3 -11 -3 0 -5 4 -11 10 -13 6 -2 0 -22 -12 -47 l-22 -44 -23 94 c-30
127 -31 126 17 134 25 4 44 14 51 27 10 19 10 19 -15 3 -30 -20 -91 -12 -82
10 3 8 0 16 -7 18 -7 2 -9 7 -5 11 3 4 16 3 27 -4 12 -6 21 -9 21 -6 0 2 3 12
7 22 5 15 2 16 -25 11 -27 -6 -34 -2 -49 23 -10 18 -21 26 -27 21 -10 -8 -175
-17 -411 -23 l-70 -2 -3 29 c-2 16 1 45 7 65 5 19 12 47 15 61 10 48 79 112
175 162 50 27 91 51 91 55 0 4 11 19 25 34 23 27 55 30 55 6 0 -6 -6 -5 -15 2
-13 11 -16 8 -21 -20 -4 -17 -13 -34 -20 -37 -8 -3 -11 -9 -8 -14 3 -5 -4 -22
-16 -38 -13 -20 -17 -32 -9 -36 7 -5 3 -14 -11 -27 -15 -14 -20 -27 -15 -46 3
-15 -1 -50 -10 -77 -17 -58 -18 -65 -7 -65 5 0 15 19 22 43 8 23 19 49 26 57
6 8 10 31 8 50 -4 30 -3 32 6 13 13 -31 19 -29 18 5 -1 15 6 42 16 59 9 18 16
42 17 55 0 22 1 22 9 3 4 -11 19 -30 33 -43 l25 -24 41 26 c23 15 41 30 41 35
0 13 83 122 88 116 3 -2 -1 -11 -8 -20z m-3042 6 c7 -4 15 -14 16 -22 2 -8 8
-27 14 -42 17 -41 15 -49 -7 -37 -30 15 -38 12 -38 -14 0 -22 2 -23 23 -16 15
6 24 6 24 0 0 -6 -6 -10 -14 -10 -19 0 -40 -26 -26 -35 15 -9 12 -32 -5 -39
-13 -5 -15 11 -15 109 0 63 3 115 8 115 4 0 13 -4 20 -9z m3355 3 c11 -11 -5
-34 -24 -34 -21 0 -26 25 -6 33 17 8 23 8 30 1z m105 -11 c-10 -2 -26 -2 -35
0 -10 3 -2 5 17 5 19 0 27 -2 18 -5z m65 0 c-7 -2 -19 -2 -25 0 -7 3 -2 5 12
5 14 0 19 -2 13 -5z m-2581 -64 c12 -22 25 -39 30 -39 12 0 10 -24 -4 -38 -9
-9 -16 -8 -30 5 -20 18 -25 4 -8 -27 6 -12 17 -17 28 -14 14 5 14 3 -2 -10
-19 -15 -19 -16 10 -16 17 0 34 -4 40 -8 8 -8 29 -15 124 -42 24 -6 25 -11 28
-93 l3 -85 -253 -4 c-238 -3 -254 -2 -270 15 -15 16 -18 16 -18 4 0 -9 -4 -19
-10 -22 -6 -4 -7 6 -4 25 6 30 -8 43 -20 18 -4 -7 -4 -3 -2 9 2 12 -1 24 -8
27 -6 2 -1 5 10 5 12 1 35 -6 50 -14 16 -8 36 -15 44 -15 20 0 -14 22 -65 42
l-40 16 68 7 c37 4 67 9 67 12 0 17 -39 36 -83 42 -50 7 -51 7 -19 15 29 7 46
26 22 26 -15 0 0 29 18 35 10 2 37 23 61 45 24 22 45 40 48 40 2 0 21 11 41
25 20 14 47 25 60 25 19 0 23 4 20 18 -10 36 40 13 64 -29z m-1282 31 c12 -8
11 -10 -7 -10 -12 0 -25 5 -28 10 -8 13 15 13 35 0z m4094 -25 c5 -18 11 -23
23 -18 15 6 15 5 3 -8 -10 -12 -43 -15 -144 -17 -135 -1 -142 14 -10 20 58 2
65 5 70 25 9 33 50 31 58 -2z m-171 8 c-7 -2 -19 -2 -25 0 -7 3 -2 5 12 5 14
0 19 -2 13 -5z m-4118 -92 c3 -5 1 -12 -5 -16 -5 -3 -10 1 -10 9 0 18 6 21 15
7z m4122 3 c-3 -3 -12 -4 -19 -1 -8 3 -5 6 6 6 11 1 17 -2 13 -5z m55 -6 c-17
-8 -26 -8 -34 0 -9 9 -4 12 23 11 32 0 33 -1 11 -11z m-3609 -28 c-7 -28 -23
-36 -23 -11 0 10 6 22 13 24 6 3 13 6 14 6 0 1 -1 -8 -4 -19z m37 -17 c-1 -21
-7 -59 -13 -86 l-13 -47 -22 20 c-27 26 -28 34 -2 27 16 -4 21 1 26 21 3 15 7
32 9 38 2 6 -1 16 -6 21 -11 11 -2 43 12 43 5 0 9 -17 9 -37z m3749 13 c10
-11 7 -17 -11 -30 -22 -16 -22 -16 17 -17 22 -1 44 -1 49 0 5 1 4 -5 -4 -13
-7 -9 -23 -16 -36 -16 -17 0 -24 -6 -24 -20 0 -15 -7 -19 -32 -20 -18 0 -46
-1 -63 -3 -24 -2 -31 2 -33 20 -4 25 27 46 53 37 13 -5 16 -2 13 11 -3 20 30
65 48 65 6 0 17 -6 23 -14z m181 -10 c0 -8 -5 -18 -11 -22 -14 -8 -33 11 -25
25 10 16 36 13 36 -3z m-2704 -123 c-1 -98 -4 -118 -16 -118 -11 0 -16 14 -18
50 -4 52 16 185 28 185 4 0 6 -53 6 -117z m-756 97 c-8 -5 -19 -10 -25 -10 -5
0 -3 5 5 10 8 5 20 10 25 10 6 0 3 -5 -5 -10z m-540 -28 c0 -5 -7 -9 -15 -9
-8 0 -15 4 -15 9 0 4 7 8 15 8 8 0 15 -4 15 -8z m1335 -98 c0 -46 -3 -84 -7
-84 -5 0 -8 41 -8 92 0 50 3 88 7 84 5 -4 8 -45 8 -92z m2585 79 c-1 -53 -30
-84 -44 -48 -3 8 -12 15 -21 15 -8 0 -15 6 -15 14 0 9 7 12 20 9 12 -3 22 1
26 11 8 22 34 20 34 -1z m75 7 c3 -5 1 -10 -4 -10 -6 0 -11 5 -11 10 0 6 2 10
4 10 3 0 8 -4 11 -10z m-3990 -66 c11 -6 22 -20 24 -30 2 -15 -3 -13 -28 11
-17 17 -31 35 -31 40 0 7 3 7 8 0 4 -5 16 -15 27 -21z m3806 -4 c19 -11 27
-50 10 -50 -5 0 -17 -3 -27 -7 -12 -4 -15 -2 -12 8 3 8 -1 20 -9 27 -28 29 -3
43 38 22z m-3781 -89 c0 -7 -8 -8 -24 -1 -13 5 -27 6 -30 3 -3 -4 -6 13 -6 36
l0 42 30 -34 c17 -19 30 -40 30 -46z m1653 2 c-7 -2 -19 -2 -25 0 -7 3 -2 5
12 5 14 0 19 -2 13 -5z m1723 -22 c-17 -19 -125 -75 -132 -69 -2 2 25 22 59
45 68 46 103 57 73 24z m-3391 -14 c13 -3 9 -5 -12 -6 -24 -1 -33 3 -33 15 0
12 3 14 13 6 6 -5 21 -12 32 -15z m3340 -97 c4 -6 -19 -40 -50 -76 -32 -36
-56 -67 -54 -69 4 -3 50 5 143 25 48 11 81 -2 50 -18 -11 -6 -36 -13 -57 -17
-30 -6 -36 -11 -32 -25 3 -10 -2 -23 -12 -31 -16 -13 -17 -12 -5 3 19 24 -12
38 -87 38 -34 0 -61 3 -61 6 0 8 80 108 117 147 29 29 38 33 48 17z m595 -10
c0 -11 -4 -20 -9 -20 -6 0 -9 9 -8 20 1 11 5 20 9 20 4 0 8 -9 8 -20z m-1771
-116 c31 -113 32 -121 28 -277 l-4 -162 -32 -3 c-36 -4 -32 -22 5 -22 17 0 24
-5 24 -19 0 -25 -10 -31 -55 -33 -42 -1 -48 -18 -6 -18 21 0 30 -6 34 -21 3
-12 10 -18 16 -14 7 3 11 -2 11 -14 0 -16 -10 -21 -57 -28 l-58 -8 55 -5 c51
-5 55 -7 52 -29 -1 -14 -4 -26 -5 -28 -2 -1 -48 -5 -103 -9 -116 -6 -297 5
-249 17 l30 7 -30 2 c-26 1 -27 3 -10 10 18 8 17 9 -7 9 -56 2 -26 19 45 26
l72 8 -44 9 c-32 7 -40 13 -32 21 17 17 13 25 -11 30 -30 5 -10 13 57 23 l50
8 -57 6 c-56 5 -92 20 -50 20 27 0 28 8 5 26 -17 12 -16 13 5 14 38 0 14 20
-26 21 -20 0 -46 4 -56 8 -18 7 -18 8 4 24 20 14 21 17 7 23 -22 8 -22 24 1
24 14 1 14 3 -5 19 -28 23 -28 31 -3 59 20 21 20 21 1 31 -20 11 -19 49 2 62
6 4 6 12 1 20 -5 8 -9 26 -9 41 0 22 6 29 27 33 14 4 29 13 32 22 9 22 -4 31
-17 12 -8 -13 -16 -15 -39 -7 -16 6 -25 15 -21 21 13 22 8 99 -7 107 -12 7
-10 11 10 19 16 6 19 11 10 12 -19 4 167 14 286 17 l92 2 31 -116z m-613 96
c20 0 24 -5 24 -31 0 -31 -1 -32 -41 -26 -44 6 -52 -13 -9 -23 34 -8 38 -30 5
-30 -15 0 -24 -4 -20 -10 4 -6 10 -8 15 -5 4 3 13 -2 20 -10 11 -13 8 -14 -19
-9 -43 9 -44 -22 -1 -31 23 -5 30 -12 30 -31 0 -26 -27 -33 -48 -12 -9 9 -12
6 -12 -14 0 -21 5 -27 25 -30 14 -2 24 -7 23 -13 -2 -5 -13 -8 -25 -7 -22 3
-23 0 -23 -62 l0 -66 -47 -35 c-27 -19 -56 -35 -67 -35 -16 0 -18 5 -13 34 4
24 1 39 -9 47 -12 10 -15 41 -13 159 0 80 6 167 12 193 9 43 13 46 46 50 20 3
56 3 80 1 24 -2 54 -4 67 -4z m2321 4 c-3 -3 -12 -4 -19 -1 -8 3 -5 6 6 6 11
1 17 -2 13 -5z m-2727 -94 l0 -89 -32 5 c-18 3 -51 9 -74 14 -65 15 -110 -3
-181 -73 -52 -50 -62 -65 -59 -89 2 -16 0 -31 -5 -34 -5 -3 -9 3 -9 13 -1 17
-1 17 -12 -1 -7 -13 -9 -67 -4 -171 l7 -151 -42 -52 c-55 -68 -72 -71 -46 -9
24 56 47 131 47 154 0 12 4 24 9 27 13 9 8 91 -6 89 -14 -3 -90 -4 -113 -1 -8
0 -37 -2 -65 -5 l-50 -7 43 22 c23 12 42 25 42 28 0 3 -15 10 -32 15 l-33 10
-2 90 c-1 59 1 83 7 70 5 -11 9 -49 9 -85 1 -46 4 -61 11 -50 8 13 10 12 10
-3 0 -26 20 -11 21 16 1 12 6 -2 11 -32 7 -38 13 -50 19 -40 12 19 11 62 -1
95 -16 42 -6 38 30 -13 19 -26 35 -42 37 -36 6 18 -34 90 -59 108 -23 16 -23
16 7 9 17 -4 41 -15 55 -24 46 -31 55 -33 33 -8 -13 13 -23 29 -23 36 0 14
-112 88 -157 103 -18 6 -30 15 -27 20 3 6 8 33 10 61 2 29 10 55 16 60 20 12
66 9 71 -4 4 -10 7 -10 14 -1 6 9 63 13 198 16 105 1 220 3 258 5 l67 2 0 -90z
m-746 47 c-1 -16 0 -19 3 -7 9 40 23 19 23 -36 0 -49 -2 -55 -18 -50 -16 6
-18 0 -14 -59 3 -44 1 -65 -7 -65 -6 0 -11 20 -12 48 0 26 -3 58 -5 72 -2 14
-6 44 -8 67 -2 23 -7 47 -11 53 -5 8 2 10 21 8 25 -2 29 -7 28 -31z m-307 3
c-14 -11 -31 -20 -37 -20 -7 0 -10 -7 -7 -15 4 -8 2 -17 -3 -20 -5 -3 -9 13
-8 35 0 40 0 40 41 40 l40 0 -26 -20z m223 10 c0 -21 -45 -99 -57 -100 -19 0
-16 12 13 64 24 43 44 59 44 36z m30 -25 c0 -38 -21 -75 -43 -75 -11 0 -17 3
-13 8 4 4 13 7 19 7 7 0 13 20 15 48 3 47 22 58 22 12z m944 22 c15 -11 17
-30 13 -187 -2 -96 -8 -191 -14 -210 l-10 -35 -7 40 c-4 22 -11 59 -17 82 -10
47 -13 306 -2 316 9 10 17 9 37 -6z m2574 -22 c-3 -3 -9 2 -12 12 -6 14 -5 15
5 6 7 -7 10 -15 7 -18z m-208 1 c0 -15 -14 -35 -21 -30 -15 9 -10 34 6 34 8 0
15 -2 15 -4z m308 -27 c-2 -6 -8 -10 -13 -10 -5 0 -11 4 -13 10 -2 6 4 11 13
11 9 0 15 -5 13 -11z m-438 -70 c0 -5 -7 -9 -15 -9 -8 0 -15 7 -15 15 0 9 6
12 15 9 8 -4 15 -10 15 -15z m200 12 c0 -15 -29 -21 -111 -21 -71 0 -100 10
-66 23 22 9 177 7 177 -2z m-3397 -42 c-3 -11 -9 -16 -14 -14 -4 3 -6 12 -2
20 3 8 0 15 -6 15 -6 0 -11 5 -11 10 0 6 7 6 19 -1 11 -7 16 -19 14 -30z
m2924 15 c-3 -3 -12 -4 -19 -1 -8 3 -5 6 6 6 11 1 17 -2 13 -5z m-3107 -24 c0
-5 -5 -10 -11 -10 -5 0 -7 5 -4 10 3 6 8 10 11 10 2 0 4 -4 4 -10z m3593 1 c4
-1 5 -29 3 -63 -3 -54 -8 -65 -28 -76 -12 -7 -34 -9 -48 -6 -96 25 -97 25
-137 -24 -76 -93 -76 -93 -103 -72 l-23 18 27 46 c18 32 34 46 49 47 12 0 16
3 10 6 -21 8 -13 73 9 73 5 0 7 -4 3 -9 -3 -5 0 -13 6 -17 7 -4 9 -3 5 4 -3 6
-2 13 2 16 5 3 7 17 5 30 -5 22 -1 25 33 28 33 2 161 2 187 -1z m-2729 -28 c3
-16 8 -44 12 -64 l6 -37 -48 6 c-41 4 -46 3 -41 -12 4 -9 2 -16 -3 -16 -20 0
-9 -40 15 -56 14 -9 27 -15 29 -13 2 2 8 13 15 24 l12 20 -3 -20 c-2 -11 3
-26 12 -33 13 -11 12 -14 -10 -32 -14 -11 -31 -25 -38 -31 -9 -8 -16 -1 -29
28 -9 21 -18 32 -20 26 -3 -8 -14 -11 -29 -7 -20 5 -24 2 -24 -15 0 -12 6 -21
13 -21 6 -1 1 -7 -13 -15 -23 -13 -23 -14 -5 -16 17 -1 17 -2 3 -6 -10 -2 -18
-8 -18 -13 0 -15 39 -21 75 -11 21 5 35 6 35 0 0 -5 -7 -9 -15 -9 -8 0 -15 -8
-15 -19 0 -15 -10 -20 -45 -25 -29 -5 -45 -12 -45 -22 0 -20 -27 -18 -38 4
-13 24 -23 150 -16 193 6 36 12 39 62 39 15 0 22 5 19 13 -2 6 -12 12 -23 12
-28 1 -19 30 23 81 38 45 68 61 135 73 3 0 9 -11 12 -26z m2259 -13 c7 0 6 5
-3 11 -11 8 -9 9 10 3 52 -14 61 -33 30 -66 -16 -17 -22 -19 -35 -8 -12 10
-16 9 -21 -4 -3 -9 -17 -16 -30 -16 -19 0 -23 5 -21 23 1 13 -4 23 -13 23 -8
1 -28 3 -45 4 -29 2 -28 3 13 15 23 8 49 21 58 29 14 14 17 14 30 1 9 -8 21
-15 27 -15z m-3208 -69 c3 -5 1 -12 -5 -16 -5 -3 -10 1 -10 9 0 18 6 21 15 7z
m27 -23 c-7 -7 -12 -8 -12 -2 0 14 12 26 19 19 2 -3 -1 -11 -7 -17z m202 7 c6
-17 4 -18 -18 -9 -20 8 -21 24 -2 24 8 0 16 -7 20 -15z m1246 5 c0 -5 -2 -10
-4 -10 -3 0 -8 5 -11 10 -3 6 -1 10 4 10 6 0 11 -4 11 -10z m-1199 -17 c13
-16 12 -17 -3 -4 -17 13 -22 21 -14 21 2 0 10 -8 17 -17z m2284 -3 c-4 -6 -1
-17 5 -25 8 -10 9 -15 2 -15 -6 0 -14 5 -17 10 -7 12 0 40 10 40 4 0 3 -5 0
-10z m1381 -17 c-10 -10 -19 5 -10 18 6 11 8 11 12 0 2 -7 1 -15 -2 -18z
m-5265 7 c5 0 9 -4 9 -10 0 -5 -11 -10 -25 -10 -16 0 -25 6 -25 16 0 11 5 14
16 10 9 -3 20 -6 25 -6z m2264 -1 c11 -17 0 -20 -21 -4 -17 13 -17 14 -2 15 9
0 20 -5 23 -11z m1375 -58 c0 -10 -7 -24 -15 -31 -13 -11 -20 -9 -40 10 -23
22 -24 25 -9 41 9 10 13 23 8 30 -4 7 7 3 24 -10 18 -12 32 -31 32 -40z
m-2069 16 c-1 -12 -15 -9 -19 4 -3 6 1 10 8 8 6 -3 11 -8 11 -12z m-1551 -23
c0 -31 -17 -64 -32 -64 -6 0 -16 8 -23 17 -15 21 -1 60 24 66 29 8 31 7 31
-19z m1640 -79 c0 -3 -5 -5 -11 -5 -16 0 -41 29 -34 40 3 5 2 10 -2 10 -5 0
-14 10 -21 23 -8 12 5 3 27 -21 23 -24 41 -45 41 -47z m0 64 c0 -6 -4 -7 -10
-4 -5 3 -10 11 -10 16 0 6 5 7 10 4 6 -3 10 -11 10 -16z m946 -11 c-3 -13 -6
-26 -6 -30 0 -5 -4 -8 -10 -8 -5 0 -10 14 -10 30 0 21 5 30 16 30 12 0 15 -6
10 -22z m-916 -8 c0 -5 -2 -10 -4 -10 -3 0 -8 5 -11 10 -3 6 -1 10 4 10 6 0
11 -4 11 -10z m1082 -9 c2 7 8 6 17 -5 12 -14 12 -16 -2 -11 -8 4 -18 2 -21
-4 -4 -5 -7 -74 -8 -153 l-2 -144 -23 10 c-16 8 -23 21 -25 51 -2 27 -8 40
-18 40 -25 1 -40 -27 -28 -50 8 -16 8 -18 -2 -8 -7 6 -20 9 -28 5 -13 -4 -12
2 6 32 25 42 54 154 42 161 -5 3 -20 -9 -34 -27 -31 -40 -42 -33 -16 10 26 42
111 104 126 91 8 -7 13 -6 16 2z m964 -7 c-3 -9 -6 -17 -6 -20 0 -2 -7 -1 -15
2 -11 5 -12 9 -2 20 16 18 30 17 23 -2z m1354 1 c0 -8 -4 -15 -10 -15 -5 0
-10 7 -10 15 0 8 5 15 10 15 6 0 10 -7 10 -15z m-3231 -32 c-20 -5 -29 -32
-29 -93 0 -33 -3 -41 -10 -30 -5 8 -10 11 -10 6 0 -5 -7 -3 -15 4 -15 12 -19
57 -9 95 4 16 14 20 47 21 23 0 35 -1 26 -3z m1954 -90 c-7 -48 -18 -123 -23
-166 -5 -42 -17 -93 -26 -112 -21 -45 -30 -39 -10 6 8 19 22 95 31 169 21 177
26 201 35 195 4 -2 1 -44 -7 -92z m1263 47 c18 0 18 -3 -7 -51 -11 -22 -25
-39 -32 -36 -13 4 -14 65 -1 112 l7 30 10 -28 c5 -15 15 -27 23 -27z m-3141
30 c-3 -5 -12 -10 -20 -10 -18 0 -25 -23 -25 -86 0 -45 -3 -52 -16 -47 -13 5
-15 16 -9 60 5 39 3 59 -7 70 -11 14 -11 16 2 11 8 -3 24 -2 35 3 29 11 47 11
40 -1z m669 1 c3 -5 -1 -14 -9 -21 -13 -10 -15 -9 -15 9 0 21 14 28 24 12z
m1456 -58 c18 -97 49 -194 71 -222 11 -13 19 -31 19 -39 0 -8 3 -12 6 -9 4 3
23 -7 42 -23 19 -16 39 -27 44 -24 4 3 8 1 8 -4 0 -6 -91 -13 -213 -17 -199
-7 -283 -3 -275 13 2 4 12 25 21 47 10 22 22 49 27 60 5 11 12 36 16 55 4 19
8 37 9 40 1 3 5 47 10 98 l8 92 97 0 98 0 12 -67z m-2477 17 c8 -11 17 -17 20
-13 4 3 7 4 7 0 0 -17 -20 -13 -40 8 -13 14 -18 25 -12 25 6 0 17 -9 25 -20z
m404 14 c-3 -3 -12 -4 -19 -1 -8 3 -5 6 6 6 11 1 17 -2 13 -5z m-47 -14 c0 -5
-4 -10 -10 -10 -5 0 -10 5 -10 10 0 6 5 10 10 10 6 0 10 -4 10 -10z m-410 -10
c0 -5 -5 -10 -11 -10 -5 0 -7 5 -4 10 3 6 8 10 11 10 2 0 4 -4 4 -10z m127 -6
c2 -6 -3 -14 -11 -17 -8 -3 -16 2 -19 14 -4 15 -1 19 10 17 9 -2 18 -8 20 -14z
m2630 -6 c-3 -8 -6 -5 -6 6 -1 11 2 17 5 13 3 -3 4 -12 1 -19z m-3407 2 c8 -5
11 -10 5 -10 -5 0 -17 5 -25 10 -8 5 -10 10 -5 10 6 0 17 -5 25 -10z m510 4
c0 -10 -42 -65 -46 -61 -6 6 29 67 39 67 4 0 7 -3 7 -6z m1161 -25 c-9 -22
-10 -22 -10 -3 -1 11 2 24 6 27 12 12 14 0 4 -24z m2444 21 c3 -5 1 -10 -4
-10 -6 0 -11 5 -11 10 0 6 2 10 4 10 3 0 8 -4 11 -10z m-3039 -12 c4 -6 3 -8
-4 -4 -5 3 -13 0 -15 -6 -3 -8 -6 -6 -6 5 -1 19 14 23 25 5z m2274 -69 c0 -11
-4 -19 -10 -19 -5 0 -10 12 -10 28 0 15 -3 38 -6 52 -4 18 -1 16 10 -9 9 -18
16 -42 16 -52z m-3183 65 c-3 -3 -12 -4 -19 -1 -8 3 -5 6 6 6 11 1 17 -2 13
-5z m363 -13 c0 -5 -7 -14 -15 -21 -16 -14 -18 -10 -9 14 6 17 24 22 24 7z
m3565 -19 c-8 -8 -25 10 -19 20 4 6 9 5 15 -3 4 -7 6 -15 4 -17z m-3317 -21
c3 -8 -1 -12 -9 -9 -7 2 -15 10 -17 17 -3 8 1 12 9 9 7 -2 15 -10 17 -17z
m-108 -11 c0 -5 -4 -10 -10 -10 -5 0 -10 5 -10 10 0 6 5 10 10 10 6 0 10 -4
10 -10z m290 -6 c0 -8 -4 -12 -10 -9 -5 3 -10 10 -10 16 0 5 5 9 10 9 6 0 10
-7 10 -16z m3135 6 c3 -5 2 -10 -4 -10 -7 0 -7 -8 0 -27 7 -20 7 -28 -3 -35
-16 -9 -30 -6 -29 7 5 60 21 89 36 65z m-3285 -25 c0 -8 -4 -15 -10 -15 -5 0
-7 7 -4 15 4 8 8 15 10 15 2 0 4 -7 4 -15z m-66 -3 c8 -14 -6 -82 -16 -76 -5
3 -6 14 -3 25 5 14 1 19 -12 20 -10 0 -13 3 -6 5 7 3 9 12 6 20 -6 15 22 20
31 6z m-429 -12 c16 -7 17 -9 3 -9 -9 -1 -18 -5 -20 -10 -5 -14 -148 -26 -148
-12 0 6 18 11 44 11 24 0 52 3 62 7 16 6 16 7 -2 14 -15 6 -13 8 11 8 17 0 39
-4 50 -9z m3460 -30 c0 -16 -6 -26 -19 -28 -25 -5 -37 9 -29 36 8 33 48 26 48
-8z m-2965 4 c0 -8 -4 -12 -10 -9 -5 3 -10 10 -10 16 0 5 5 9 10 9 6 0 10 -7
10 -16z m3584 -40 c-10 -20 -20 -32 -22 -26 -4 13 27 76 35 69 2 -3 -3 -22
-13 -43z m-3684 -2 c0 -13 -3 -12 -20 3 -11 10 -17 22 -14 27 8 12 34 -11 34
-30z m3775 28 c-3 -5 -14 -10 -23 -9 -14 0 -13 2 3 9 27 11 27 11 20 0z
m-5015 -40 c-7 -13 -7 -20 -1 -20 6 0 8 -6 5 -14 -4 -9 9 -17 40 -25 24 -6 52
-18 61 -27 11 -12 25 -14 50 -10 19 4 36 2 40 -4 3 -5 -1 -10 -9 -10 -19 0
-20 -11 -3 -29 10 -10 4 -11 -28 -6 -47 9 -185 98 -185 121 0 8 30 44 37 44 2
0 -1 -9 -7 -20z m4654 4 c13 -5 13 -10 4 -27 -6 -12 -15 -25 -21 -28 -5 -4 -7
-15 -3 -25 7 -17 9 -17 28 6 16 20 18 21 13 5 -4 -11 -8 -25 -8 -32 0 -7 -6
-14 -13 -17 -8 -3 -11 -12 -8 -20 7 -18 -14 -96 -26 -96 -5 0 -8 6 -6 13 16
49 16 67 1 67 -10 0 -15 -7 -13 -18 1 -10 -8 -29 -21 -42 l-24 -25 6 30 c3 17
9 39 13 50 5 14 -3 9 -24 -14 -35 -36 -39 -46 -18 -38 9 4 7 -9 -9 -41 -12
-26 -28 -62 -36 -79 -8 -18 -18 -33 -24 -33 -5 0 4 -9 20 -19 27 -17 31 -17
43 -3 10 14 12 12 12 -10 0 -15 -6 -29 -12 -31 -10 -4 -10 -7 0 -14 10 -8 9
-16 -4 -42 -21 -42 -33 -30 -44 40 -6 46 -8 48 -9 17 -1 -32 -5 -37 -30 -43
-17 -3 -39 -1 -51 5 -18 10 -19 14 -8 28 7 9 18 22 24 27 10 9 52 114 69 173
6 20 3 22 -34 22 -41 0 -41 0 -42 38 0 20 -1 57 -2 82 l-2 45 77 1 c74 2 138
20 153 44 7 12 9 12 29 4z m233 -26 c-3 -7 -5 -2 -5 12 0 14 2 19 5 13 2 -7 2
-19 0 -25z m-4840 16 c-3 -3 -12 -4 -19 -1 -8 3 -5 6 6 6 11 1 17 -2 13 -5z
m1128 -3 c3 -5 1 -12 -5 -16 -5 -3 -10 1 -10 9 0 18 6 21 15 7z m-505 -11 c0
-5 -9 -10 -21 -10 -11 0 -17 5 -14 10 3 6 13 10 21 10 8 0 14 -4 14 -10z m780
0 c0 -5 -5 -10 -11 -10 -5 0 -7 5 -4 10 3 6 8 10 11 10 2 0 4 -4 4 -10z
m-1010 -15 c19 -7 29 -14 22 -14 -10 -1 -10 -6 -2 -22 7 -13 17 -18 27 -15 13
6 14 4 3 -9 -7 -9 -19 -14 -27 -11 -7 3 -13 1 -13 -4 0 -6 5 -10 10 -10 20 0
9 -16 -22 -31 -86 -43 -112 -50 -147 -39 -19 5 -38 7 -42 4 -5 -3 -9 12 -9 33
0 21 -3 48 -6 61 l-7 23 35 -19 c18 -11 52 -22 73 -26 57 -9 78 -13 98 -21 20
-8 21 -2 7 26 -9 16 -22 19 -75 19 -36 0 -65 4 -65 10 0 19 55 60 80 59 14 0
41 -7 60 -14z m280 6 c0 -6 -9 -9 -19 -8 -11 0 -17 5 -15 9 7 11 34 10 34 -1z
m430 -1 c0 -5 -5 -10 -11 -10 -5 0 -7 5 -4 10 3 6 8 10 11 10 2 0 4 -4 4 -10z
m160 -24 c0 -13 -7 -29 -15 -36 -12 -10 -15 -9 -15 8 0 27 10 52 21 52 5 0 9
-11 9 -24z m3560 6 c0 -4 -9 -8 -19 -8 -15 0 -17 3 -9 13 10 12 28 9 28 -5z
m-4684 -7 c16 -12 16 -14 3 -15 -9 0 -31 3 -49 6 -22 5 -28 9 -18 15 20 13 42
11 64 -6z m319 5 c-3 -5 -10 -10 -16 -10 -5 0 -9 5 -9 10 0 6 7 10 16 10 8 0
12 -4 9 -10z m41 -11 c4 -8 9 -7 15 2 7 11 9 11 9 -2 0 -9 -8 -23 -17 -30 -13
-11 -15 -11 -9 -1 5 8 1 19 -10 27 -11 8 -14 15 -7 15 6 0 15 -5 19 -11z m569
1 c3 -5 1 -10 -4 -10 -6 0 -11 5 -11 10 0 6 2 10 4 10 3 0 8 -4 11 -10z m83 1
c11 -7 11 -9 -1 -14 -16 -6 -27 0 -27 15 0 10 11 10 28 -1z m1895 -1 c4 0 7
-5 7 -11 0 -5 -4 -7 -10 -4 -5 3 -10 2 -10 -4 0 -5 6 -13 12 -17 20 -13 -108
-33 -199 -32 -53 0 -89 5 -100 14 -10 7 -29 14 -43 14 -24 1 -60 21 -60 33 0
12 61 15 225 11 94 -2 173 -4 178 -4z m1817 0 c0 -17 -112 -120 -123 -113 -6
4 -8 0 -4 -10 4 -11 -5 -28 -23 -49 -17 -18 -30 -28 -30 -23 1 19 45 100 55
101 19 2 45 16 41 23 -6 10 3 22 42 54 37 30 42 32 42 17z m-4635 -10 c3 -6
-1 -7 -9 -4 -18 7 -21 14 -7 14 6 0 13 -4 16 -10z m824 -54 c-9 -8 -10 -7 -5
7 3 10 7 24 7 30 1 7 3 4 6 -7 3 -10 -1 -23 -8 -30z m3832 21 c-6 -8 -7 -18
-3 -22 4 -5 1 -5 -6 -1 -10 6 -10 11 -1 22 6 8 14 14 16 14 3 0 0 -6 -6 -13z
m-2168 -14 c-7 -2 -21 -2 -30 0 -10 3 -4 5 12 5 17 0 24 -2 18 -5z m-2243 -13
c0 -5 -2 -10 -4 -10 -3 0 -8 5 -11 10 -3 6 -1 10 4 10 6 0 11 -4 11 -10z
m3541 -11 c30 -9 42 -9 54 1 13 11 15 9 15 -13 l0 -26 -54 19 c-29 10 -62 20
-72 23 -19 5 -19 5 0 6 10 0 36 -4 57 -10z m624 -9 c-3 -10 -1 -29 6 -41 10
-19 9 -21 -6 -16 -9 4 -19 7 -21 7 -7 0 -5 17 6 44 11 30 24 35 15 6z m-4595
-10 c0 -5 -16 -12 -36 -16 -42 -8 -49 -20 -34 -60 10 -25 9 -27 -3 -14 -8 8
-18 32 -21 52 -7 37 -6 37 31 41 21 2 44 4 51 5 6 1 12 -2 12 -8z m2660 -6
c-85 -28 -224 -34 -199 -9 6 5 160 22 214 23 26 0 24 -2 -15 -14z m-1505 -4
c3 -5 -1 -10 -9 -10 -9 0 -16 5 -16 10 0 6 4 10 9 10 6 0 13 -4 16 -10z m1265
0 c0 -5 -4 -10 -10 -10 -5 0 -10 5 -10 10 0 6 5 10 10 10 6 0 10 -4 10 -10z
m500 -5 c6 -8 8 -20 4 -26 -4 -7 -3 -9 4 -5 6 3 13 2 17 -4 3 -5 -2 -10 -11
-10 -18 0 -64 37 -64 52 0 14 37 9 50 -7z m65 3 c14 -6 25 -19 25 -30 0 -26
-13 -22 -38 12 -25 33 -24 35 13 18z m-2575 -35 c0 -9 -6 -13 -15 -9 -24 9
-39 -31 -22 -58 19 -28 41 -268 29 -311 -6 -23 -17 -33 -47 -43 -22 -7 -48
-11 -60 -9 -18 3 -17 5 8 15 34 15 35 26 1 18 -20 -5 -27 -3 -31 13 -9 35 -63
40 -63 6 0 -8 -9 -19 -19 -25 -17 -9 -20 -5 -26 33 -4 23 -11 50 -16 59 -5 10
-14 37 -19 60 -5 24 -16 65 -26 91 -18 52 -15 64 13 49 25 -14 114 7 131 30 7
10 20 18 28 18 8 0 14 5 14 10 0 6 6 10 13 10 6 0 27 18 46 40 27 31 37 38 47
29 8 -6 14 -18 14 -26z m2623 -28 c-30 -38 -43 -44 -43 -20 0 9 11 20 24 25
13 5 27 14 31 19 3 6 8 11 11 11 3 0 -8 -16 -23 -35z m-163 0 c5 3 12 0 16 -6
3 -6 1 -15 -7 -19 -10 -7 -10 -11 0 -24 16 -19 1 -22 -18 -3 -10 10 -11 9 -6
-5 5 -14 2 -18 -13 -18 -27 0 -82 47 -82 70 0 15 7 17 45 12 34 -3 45 -1 46 9
1 8 3 6 6 -4 2 -9 8 -15 13 -12z m-2820 5 c11 -7 8 -9 -15 -9 -16 1 -41 5 -55
9 -22 7 -20 8 15 9 22 0 47 -4 55 -9z m2907 -30 c-1 -17 -5 -30 -10 -30 -4 0
-11 0 -17 0 -5 0 -7 7 -5 15 3 8 7 22 10 30 8 27 25 16 22 -15z m1774 -3 c-13
-13 -26 -3 -16 12 3 6 11 8 17 5 6 -4 6 -10 -1 -17z m-95 -43 c-3 -8 -10 -12
-16 -9 -5 3 -10 1 -10 -4 0 -6 -7 -11 -16 -11 -11 0 -14 -5 -10 -16 6 -14 4
-15 -10 -4 -13 12 -17 11 -25 -1 -7 -11 -9 -9 -9 8 0 16 4 21 15 17 8 -4 15
-2 15 4 0 5 14 15 30 22 17 7 30 18 31 24 0 7 3 6 6 -2 3 -7 2 -20 -1 -28z
m-4550 13 c4 -7 4 -9 -1 -5 -9 9 -27 -9 -41 -41 l-11 -25 -16 33 c-9 18 -15
37 -12 41 7 12 74 10 81 -3z m2037 6 c-25 -5 -30 -18 -10 -26 7 -3 5 -6 -5 -6
-10 -1 -18 6 -18 14 0 18 -16 20 -23 3 -3 -8 -6 -6 -6 5 -1 14 7 17 42 16 23
-1 32 -4 20 -6z m2374 -45 c-3 -8 -6 -5 -6 6 -1 11 2 17 5 13 3 -3 4 -12 1
-19z m-2248 -34 c2 -2 -8 -5 -22 -5 -38 -2 -45 -3 -51 -10 -3 -3 -44 -4 -92
-2 -82 4 -85 3 -79 -17 4 -14 2 -20 -8 -20 -17 0 -16 -32 2 -53 10 -13 9 -18
-9 -27 -12 -7 -19 -18 -16 -25 3 -8 1 -17 -4 -20 -6 -4 -10 2 -10 13 0 17 -7
19 -57 18 -48 -1 -58 -4 -55 -17 2 -12 -8 -19 -33 -23 -23 -5 -33 -11 -29 -18
5 -7 1 -9 -9 -5 -20 7 -21 3 -7 -24 8 -13 8 -24 0 -37 -10 -15 -11 -14 -7 5 3
13 1 26 -4 29 -19 11 -9 54 18 71 l26 17 -24 7 c-25 7 17 12 131 13 l55 1 0
50 c0 28 5 53 10 57 6 5 5 8 -2 8 -7 0 -13 4 -13 8 0 4 36 7 80 5 56 -2 79 1
74 8 -4 8 14 9 62 4 38 -4 71 -9 73 -11z m2435 -10 c4 -11 -1 -22 -12 -30 -11
-8 -22 -31 -26 -56 -4 -23 -10 -38 -14 -33 -12 18 -40 16 -45 -2 -3 -11 -5 -6
-6 12 -2 28 -3 29 -11 8 -9 -21 -25 -28 -57 -24 -7 1 -13 -5 -13 -13 0 -9 -10
-20 -22 -26 -20 -9 -21 -9 -7 2 19 15 14 39 -7 31 -8 -3 -14 1 -14 10 0 8 7
18 16 21 12 4 14 14 9 36 -8 35 2 70 19 70 7 0 20 -15 28 -32 l16 -33 8 35 8
35 11 -29 c11 -27 13 -28 23 -10 7 12 12 14 12 5 0 -10 3 -11 13 -2 8 6 16 8
20 5 3 -3 10 4 17 15 13 25 26 27 34 5z m-4597 -9 c1 -5 -2 -17 -7 -25 -8 -13
-11 -12 -24 5 -9 11 -16 23 -16 26 0 10 43 5 47 -6z m2813 -45 c0 -5 -7 -10
-16 -10 -8 0 -12 5 -9 10 3 6 10 10 16 10 5 0 9 -4 9 -10z m-646 -32 c-3 -5 0
-16 7 -24 6 -8 9 -18 5 -21 -4 -4 -11 -1 -16 7 -15 24 -11 5 5 -26 8 -16 15
-24 16 -19 0 6 4 -2 9 -17 4 -14 5 -48 2 -75 l-6 -48 -17 70 c-10 39 -18 57
-17 40 1 -60 -2 -76 -12 -70 -6 4 -13 -8 -17 -27 -6 -31 -7 -32 -13 -8 -4 19
-12 24 -34 25 -22 0 -30 5 -32 23 -2 12 1 22 6 22 6 0 10 7 10 15 0 8 7 15 16
15 13 0 15 6 9 28 -3 15 -13 34 -21 43 -13 15 -13 17 5 22 12 3 31 -3 44 -13
21 -17 23 -17 23 -2 0 63 4 75 19 62 8 -7 12 -16 9 -22z m191 13 c35 -8 31 -9
-35 -10 -52 0 -70 2 -60 9 18 12 41 12 95 1z m1815 -41 c-7 -4 -10 -12 -6 -18
9 -14 -19 -33 -38 -26 -9 3 -13 10 -10 15 3 5 -3 9 -13 9 -10 1 2 11 27 23 25
12 47 18 49 13 2 -4 -2 -12 -9 -16z m-1777 0 c3 -11 1 -20 -4 -20 -5 0 -9 9
-9 20 0 11 2 20 4 20 2 0 6 -9 9 -20z m447 -24 c8 -2 -28 -4 -80 -3 -66 0 -81
2 -50 6 42 6 95 4 130 -3z m1685 4 c3 -5 1 -10 -4 -10 -6 0 -11 5 -11 10 0 6
2 10 4 10 3 0 8 -4 11 -10z m-279 -9 c-4 -5 -1 -11 6 -13 16 -6 1 -28 -19 -28
-10 0 -13 6 -9 16 3 9 6 20 6 25 0 5 5 9 11 9 5 0 8 -4 5 -9z m-3306 -65 c0
-6 -7 -1 -15 10 -8 10 -15 23 -15 28 0 6 7 1 15 -10 8 -10 15 -23 15 -28z
m378 28 c28 -4 52 -11 52 -15 0 -5 -3 -8 -7 -8 -5 1 -33 1 -64 0 -53 -1 -56
-2 -52 -25 4 -17 0 -25 -15 -28 -12 -3 -22 -16 -24 -29 -2 -13 -9 -23 -15 -22
-20 4 -26 -64 -9 -109 14 -40 15 -49 6 -43 -8 5 -15 -21 -12 -47 2 -10 -24
-17 -35 -10 -6 4 -14 41 -18 82 -3 41 -8 86 -9 100 -2 14 -4 33 -4 43 -1 9 -8
17 -15 17 -8 0 -22 9 -32 20 -10 11 -13 20 -8 20 6 0 16 -7 23 -15 22 -27 33
-17 27 24 l-5 40 47 4 c87 7 116 7 169 1z m1082 -34 c0 -16 -4 -30 -8 -30 -5
0 -7 14 -4 30 2 17 6 30 8 30 2 0 4 -13 4 -30z m1730 23 c0 -3 -8 -15 -17 -25
-14 -16 -15 -21 -3 -28 11 -7 11 -13 -4 -34 -9 -14 -19 -26 -21 -26 -7 0 6 82
17 103 8 16 28 24 28 10z m-2167 -44 c-6 -6 -9 -1 -7 13 3 33 6 36 11 14 3
-10 1 -22 -4 -27z m-1842 -19 c-13 -11 -28 -20 -35 -20 -6 1 0 10 13 20 13 11
28 20 35 20 6 -1 0 -10 -13 -20z m830 3 l-43 -15 28 -26 c17 -16 23 -27 15
-30 -7 -2 -20 3 -30 12 -21 19 -37 20 -48 4 -4 -7 -16 -19 -26 -27 -21 -17
-177 -28 -177 -13 0 7 -17 9 -49 5 -61 -7 -122 3 -115 20 5 14 263 11 279 -4
17 -17 43 -9 49 16 4 15 20 31 41 41 20 9 38 20 41 25 3 5 22 9 42 8 l37 -1
-44 -15z m3499 -2 c0 -5 14 -15 32 -24 l31 -15 -46 0 c-32 1 -47 5 -47 15 0
16 -5 16 -32 2 -15 -8 -19 -8 -13 1 13 21 75 39 75 21z m-2699 -10 c0 8 4 5 9
-6 4 -11 4 -24 0 -29 -14 -14 -40 2 -40 25 0 18 2 19 15 9 12 -10 15 -10 16 1z
m156 -13 c-3 -8 -6 -5 -6 6 -1 11 2 17 5 13 3 -3 4 -12 1 -19z m478 -17 c-4
-19 -11 -29 -18 -24 -11 7 -64 6 -124 -2 -18 -2 -33 0 -33 5 0 6 9 10 19 10
11 0 23 5 27 11 4 8 9 8 17 0 14 -14 57 -15 57 -1 0 10 52 41 58 35 2 -2 1
-17 -3 -34z m2150 -47 c-13 -32 -24 -55 -25 -50 0 16 23 91 33 104 20 25 16 4
-8 -54z m-2871 31 c-3 -14 -2 -25 3 -25 5 0 10 -7 10 -15 0 -9 -5 -14 -11 -12
-13 4 -20 42 -12 63 9 24 17 16 10 -11z m-1177 -1 c-3 -3 -12 -4 -19 -1 -8 3
-5 6 6 6 11 1 17 -2 13 -5z m2491 -1 c-10 -2 -26 -2 -35 0 -10 3 -2 5 17 5 19
0 27 -2 18 -5z m1502 -3 c13 -9 13 -10 0 -10 -8 0 -26 -3 -40 -7 -22 -6 -24
-5 -11 10 15 19 29 21 51 7z m-2765 -22 c11 -51 13 -78 6 -82 -4 -3 -28 -8
-52 -11 -35 -5 -41 -4 -29 5 13 10 13 11 -2 6 -9 -3 -57 -6 -105 -7 -48 -1
-92 -5 -98 -9 -5 -4 -27 -5 -47 -3 -37 5 -38 6 -38 47 0 26 3 36 9 28 6 -10
38 -13 132 -11 68 1 143 -3 167 -8 44 -11 56 -1 30 25 -9 9 -9 12 0 12 6 0 9
7 6 15 -4 8 -1 15 5 15 6 0 13 -10 16 -22z m2415 13 c0 -5 -5 -11 -11 -13 -9
-3 -9 -10 0 -26 15 -29 4 -28 -20 1 -25 31 -24 47 6 47 14 0 25 -4 25 -9z
m-3745 -11 c-3 -5 -1 -10 6 -10 7 0 10 -3 6 -6 -9 -9 -28 6 -22 17 4 5 8 9 11
9 3 0 2 -4 -1 -10z m620 -6 c16 -12 17 -17 7 -23 -8 -5 -13 -12 -12 -17 0 -5
-7 -10 -17 -12 -11 -2 -14 0 -7 5 6 4 11 17 11 28 0 11 -5 23 -11 27 -6 5 -7
8 -1 8 6 -1 19 -7 30 -16z m1631 -13 c5 -5 86 -11 179 -15 94 -3 177 -6 185
-7 10 0 8 -3 -5 -9 -19 -8 -19 -9 3 -9 12 -1 22 5 23 12 0 10 2 10 6 0 2 -7 9
-13 14 -13 6 0 7 5 4 10 -4 6 5 10 19 10 46 0 27 -17 -36 -33 -44 -11 -54 -16
-34 -16 21 -1 27 -4 19 -12 -11 -11 -142 -14 -440 -11 l-183 2 0 45 0 44 93 4
c50 1 103 4 118 5 14 1 29 -2 35 -7z m-1209 -7 c-3 -3 -12 -4 -19 -1 -8 3 -5
6 6 6 11 1 17 -2 13 -5z m-563 -29 c25 -23 25 -25 7 -25 -11 0 -25 9 -31 19
-20 38 -13 40 24 6z m1346 14 c0 -7 12 -9 31 -7 20 3 33 0 36 -9 8 -20 44 -16
70 9 22 20 23 20 23 2 -1 -42 -24 -55 -91 -52 -60 3 -63 4 -76 36 -8 19 -9 32
-3 32 5 0 10 -5 10 -11z m948 -6 c-10 -2 -28 -2 -40 0 -13 2 -5 4 17 4 22 1
32 -1 23 -4z m-986 -28 c3 -14 1 -25 -3 -25 -5 0 -9 11 -9 25 0 14 2 25 4 25
2 0 6 -11 8 -25z m-1225 9 c-3 -3 -12 -4 -19 -1 -8 3 -5 6 6 6 11 1 17 -2 13
-5z m1788 -64 c13 -6 -7 -9 -60 -9 -44 0 -89 4 -100 9 -13 6 7 9 60 9 44 0 89
-4 100 -9z m178 -17 c-7 -2 -19 -2 -25 0 -7 3 -2 5 12 5 14 0 19 -2 13 -5z
m-388 -23 c-16 -4 -22 -8 -12 -9 9 0 17 -6 17 -12 0 -6 -9 -8 -21 -4 -14 5
-19 3 -15 -3 11 -18 -16 -26 -29 -9 -7 10 -17 17 -24 17 -6 0 -11 6 -11 14 0
10 16 14 63 14 48 -1 55 -2 32 -8z m218 3 c-18 -2 -48 -2 -65 0 -18 2 -4 4 32
4 36 0 50 -2 33 -4z m-1776 -9 c-3 -3 -12 -4 -19 -1 -8 3 -5 6 6 6 11 1 17 -2
13 -5z m2128 -14 c3 -5 30 -10 58 -10 29 0 69 -3 90 -6 37 -7 37 -7 20 -26
-10 -11 -38 -32 -62 -46 -43 -25 -48 -25 -215 -24 -305 3 -391 17 -304 50 41
15 32 25 -12 12 -24 -7 -36 -6 -41 2 -6 9 -11 8 -23 -1 -11 -9 -16 -10 -16 -2
0 6 -17 11 -40 11 -22 0 -40 4 -40 8 0 5 22 6 49 2 26 -3 80 -6 118 -5 56 1
76 6 98 23 26 20 39 22 171 22 84 0 145 -4 149 -10z m-2961 -13 c-3 -10 12
-13 63 -15 83 -3 125 -13 115 -28 -5 -8 -37 -7 -116 4 -107 15 -108 15 -85 33
29 22 30 22 23 6z m2486 9 c0 -2 -9 -6 -20 -9 -11 -3 -18 -1 -14 4 5 9 34 13
34 5z m-2872 -25 c46 -11 86 -21 88 -24 2 -2 -22 -7 -53 -11 -32 -3 -75 -8
-95 -11 -38 -5 -38 -5 -38 30 0 19 3 35 8 35 4 0 44 -9 90 -19z m617 -21 c13
-6 15 -9 5 -9 -8 0 -22 4 -30 9 -18 12 -2 12 25 0z m675 -37 c0 -12 12 -14 60
-11 34 2 59 -1 57 -6 -4 -13 -117 -10 -130 3 -6 6 -24 11 -39 11 -28 0 -39 15
-16 22 23 8 68 -5 68 -19z m903 1 c59 -8 62 -24 5 -25 -24 -1 -33 -4 -20 -6
12 -2 22 -9 22 -14 0 -14 -58 -11 -62 3 -3 7 -22 13 -44 13 -168 4 -217 8
-174 14 41 6 43 7 25 19 -17 11 -3 12 90 8 61 -3 131 -8 158 -12z m-388 -23
c-11 -10 -314 -10 -321 0 -3 6 35 7 99 3 57 -4 111 -3 120 2 18 10 112 6 102
-5z m735 9 c0 -6 -25 -9 -57 -9 -52 1 -54 2 -23 9 53 11 80 11 80 0z m-685
-10 c-27 -12 -43 -12 -25 0 8 5 22 9 30 9 10 0 8 -3 -5 -9z m1032 4 c-3 -3
-12 -4 -19 -1 -8 3 -5 6 6 6 11 1 17 -2 13 -5z m-1430 -10 c-3 -3 -12 -4 -19
-1 -8 3 -5 6 6 6 11 1 17 -2 13 -5z m1423 -14 c-14 -4 -19 -8 -12 -9 6 -1 12
-5 12 -11 0 -17 -19 -11 -30 10 -10 18 -8 20 22 19 31 -1 32 -1 8 -9z m-442
-7 c-15 -2 -42 -2 -60 0 -18 2 -6 4 27 4 33 0 48 -2 33 -4z m230 -10 c-10 -2
-26 -2 -35 0 -10 3 -2 5 17 5 19 0 27 -2 18 -5z m145 0 c-18 -2 -48 -2 -65 0
-18 2 -4 4 32 4 36 0 50 -2 33 -4z m182 -4 c-56 -11 -105 -11 -105 1 0 6 30
10 73 9 65 -1 68 -2 32 -10z m975 -44 c-8 -10 -9 -19 -3 -27 13 -17 11 -70 -3
-75 -7 -2 -14 15 -18 43 -8 64 -8 86 3 79 5 -3 13 0 17 7 6 9 9 9 12 0 2 -7
-2 -19 -8 -27z m237 9 c4 -11 -116 -78 -124 -70 -3 2 8 11 24 19 15 8 39 27
52 41 25 26 42 29 48 10z m-2552 -109 c-10 -28 -14 -33 -15 -17 0 20 20 65 27
59 1 -2 -4 -21 -12 -42z m220 37 c17 -6 19 -13 14 -52 -3 -25 -7 -40 -7 -33
-1 7 -9 10 -17 7 -12 -5 -13 -10 -4 -20 16 -19 -7 -19 -43 0 -26 14 -27 13
-15 -5 6 -10 17 -19 24 -19 21 0 15 -18 -9 -26 l-23 -8 25 -7 c15 -4 18 -7 8
-8 -11 -1 -15 -6 -11 -17 4 -12 0 -14 -21 -8 -15 4 -26 2 -26 -4 0 -6 8 -13
18 -15 9 -3 1 -6 -18 -7 -34 -3 -40 -3 -89 2 -48 5 -54 82 -14 169 l27 59 81
-1 c44 -1 89 -4 100 -7z m2175 -32 c0 -11 -7 -20 -15 -20 -18 0 -19 12 -3 28
16 16 18 15 18 -8z m-958 -120 c3 -16 1 -35 -4 -42 -4 -8 -8 4 -8 30 0 49 6
55 12 12z m-328 2 c50 -1 83 -7 88 -15 5 -8 0 -14 -15 -18 l-22 -5 23 -8 c12
-4 22 -14 22 -22 0 -17 2 -17 -140 13 -56 12 -70 18 -55 24 18 7 18 8 2 8 -15
1 -16 4 -6 22 6 12 14 18 18 13 3 -5 42 -10 85 -12z m297 -22 c10 0 10 -3 1
-12 -15 -15 -16 -48 -2 -48 26 0 6 -18 -26 -23 -39 -7 -85 5 -66 17 17 10 15
36 -3 42 -8 4 -22 1 -30 -6 -14 -11 -14 -15 1 -31 16 -18 16 -19 -6 -19 -13 0
-20 3 -17 7 4 3 2 12 -4 20 -8 9 -8 13 -1 13 6 0 10 12 9 28 -2 25 1 27 41 30
29 2 42 -1 42 -10 0 -7 5 -5 12 6 10 18 12 18 23 3 7 -10 18 -17 26 -17z
m-430 -3 c-10 -9 -11 -8 -5 6 3 10 9 15 12 12 3 -3 0 -11 -7 -18z m-2280 -39
c0 -10 2 -10 6 0 2 6 9 12 14 12 6 0 7 -4 4 -10 -3 -5 1 -10 9 -10 9 0 16 3
16 8 0 4 21 8 48 8 30 1 40 -1 27 -6 -66 -24 -101 -31 -131 -26 -28 6 -32 9
-21 21 15 18 27 19 28 3z m2673 -81 c40 -15 -8 -22 -101 -15 -21 2 -3 18 20
18 12 0 29 4 37 10 8 5 17 5 20 1 3 -4 14 -11 24 -14z m-149 -7 c-3 -5 -12
-10 -18 -10 -7 0 -6 4 3 10 19 12 23 12 15 0z m-2588 -6 c-3 -3 -12 -4 -19 -1
-8 3 -5 6 6 6 11 1 17 -2 13 -5z m3391 -13 c3 -8 -1 -12 -9 -9 -7 2 -15 10
-17 17 -3 8 1 12 9 9 7 -2 15 -10 17 -17z m-878 -5 c0 -3 -4 -8 -10 -11 -5 -3
-10 -1 -10 4 0 6 5 11 10 11 6 0 10 -2 10 -4z m17 -138 c-3 -7 -5 -2 -5 12 0
14 2 19 5 13 2 -7 2 -19 0 -25z m10 -40 c-3 -8 -6 -5 -6 6 -1 11 2 17 5 13 3
-3 4 -12 1 -19z m48 -164 c4 -32 9 -63 12 -69 4 -7 3 -7 -4 0 -6 6 -16 39 -22
74 -7 34 -15 70 -18 80 -4 10 0 9 10 -5 9 -12 19 -47 22 -80z m-422 31 c-7
-21 -13 -19 -13 6 0 11 4 18 10 14 5 -3 7 -12 3 -20z m281 -11 c3 -8 2 -12 -4
-9 -6 3 -10 10 -10 16 0 14 7 11 14 -7z m-260 -46 c5 -4 10 -19 11 -35 0 -27
2 -28 65 -34 l65 -6 -82 -1 -83 -2 1 58 c0 31 3 50 6 42 3 -8 11 -18 17 -22z
m267 -25 c-12 -20 -14 -14 -5 12 4 9 9 14 11 11 3 -2 0 -13 -6 -23z m29 -53
c0 -5 -19 -9 -42 -9 l-43 2 40 7 c22 4 41 8 43 9 1 0 2 -3 2 -9z"/>
<path d="M3420 3326 c0 -2 7 -9 15 -16 13 -11 14 -10 9 4 -5 14 -24 23 -24 12z"/>
<path d="M3418 3223 c7 -3 16 -2 19 1 4 3 -2 6 -13 5 -11 0 -14 -3 -6 -6z"/>
<path d="M4905 3439 c-4 -6 -5 -12 -2 -15 2 -3 7 2 10 11 7 17 1 20 -8 4z"/>
<path d="M5250 3440 c0 -5 5 -10 10 -10 6 0 10 5 10 10 0 6 -4 10 -10 10 -5 0
-10 -4 -10 -10z"/>
<path d="M4910 3405 c-7 -9 -8 -15 -2 -15 5 0 12 7 16 15 3 8 4 15 2 15 -2 0
-9 -7 -16 -15z"/>
<path d="M4861 3384 c-7 -8 -11 -17 -9 -20 3 -2 13 5 23 16 10 11 14 20 9 20
-5 -1 -15 -8 -23 -16z"/>
<path d="M4946 3359 c-9 -23 -15 -43 -13 -46 3 -2 12 15 21 38 9 23 15 43 13
46 -3 2 -12 -15 -21 -38z"/>
<path d="M4832 3338 c2 -6 10 -14 16 -16 7 -2 10 2 6 12 -7 18 -28 22 -22 4z"/>
<path d="M4785 3290 c-3 -5 -14 -10 -24 -10 -22 0 -31 -26 -31 -92 0 -41 3
-48 20 -48 19 0 51 46 49 72 0 7 -6 2 -12 -12 -15 -33 -36 -54 -45 -46 -3 4
-2 10 4 14 5 4 17 20 27 35 10 15 22 25 27 22 5 -3 16 5 25 19 10 14 22 23 31
19 8 -3 14 -1 14 5 0 6 -14 15 -31 21 -39 14 -46 14 -54 1z"/>
<path d="M4672 3195 c0 -16 2 -22 5 -12 2 9 2 23 0 30 -3 6 -5 -1 -5 -18z"/>
<path d="M4622 3110 c0 -14 2 -19 5 -12 2 6 2 18 0 25 -3 6 -5 1 -5 -13z"/>
<path d="M4913 3096 c-7 -8 -18 -16 -25 -19 -7 -2 -11 -6 -8 -9 9 -8 90 13 90
23 0 6 -4 7 -10 4 -5 -3 -10 -1 -10 4 0 15 -23 13 -37 -3z"/>
<path d="M4040 2330 c20 -13 40 -13 40 0 0 6 -12 10 -27 10 -22 0 -25 -2 -13
-10z"/>
<path d="M3405 2900 c3 -5 8 -10 11 -10 2 0 4 5 4 10 0 6 -5 10 -11 10 -5 0
-7 -4 -4 -10z"/>
<path d="M2750 2626 c0 -2 7 -9 15 -16 9 -7 15 -8 15 -2 0 5 -7 12 -15 16 -8
3 -15 4 -15 2z"/>
<path d="M2804 2555 c4 -50 16 -56 16 -7 0 23 -4 42 -10 42 -5 0 -8 -16 -6
-35z"/>
<path d="M5400 2090 c19 -12 60 -13 60 -2 0 5 -17 9 -37 10 -28 1 -34 -1 -23
-8z"/>
<path d="M5506 2050 c-13 -19 -25 -101 -14 -94 4 3 8 13 8 23 0 9 5 22 11 28
6 6 9 21 7 34 -2 19 -5 21 -12 9z"/>
<path d="M5497 1943 c-4 -3 -7 -15 -7 -25 0 -10 -4 -18 -10 -18 -5 0 -6 -8 -3
-17 5 -12 10 -7 20 22 13 38 13 51 0 38z"/>
<path d="M5385 1710 c3 -5 10 -10 16 -10 5 0 9 5 9 10 0 6 -7 10 -16 10 -8 0
-12 -4 -9 -10z"/>
<path d="M5485 1710 c-3 -5 -1 -10 4 -10 6 0 11 5 11 10 0 6 -2 10 -4 10 -3 0
-8 -4 -11 -10z"/>
<path d="M1382 1878 c5 -13 68 -30 68 -19 0 4 -5 12 -12 19 -16 16 -61 16 -56
0z"/>
<path d="M1290 1790 c20 -13 33 -13 25 0 -3 6 -14 10 -23 10 -15 0 -15 -2 -2
-10z"/>
<path d="M1404 1615 c36 -19 42 -19 26 0 -7 8 -22 15 -34 15 -18 0 -17 -2 8
-15z"/>
<path d="M3280 1554 c0 -21 4 -33 10 -29 6 3 10 19 10 36 0 16 -4 29 -10 29
-5 0 -10 -16 -10 -36z"/>
<path d="M2320 1571 c0 -5 6 -14 14 -20 11 -9 15 -8 20 5 9 23 8 24 -14 24
-11 0 -20 -4 -20 -9z"/>
<path d="M4050 1200 c20 -13 220 -13 220 0 0 6 -46 10 -117 10 -80 0 -113 -3
-103 -10z"/>
<path d="M483 4230 c0 -25 2 -35 4 -22 2 12 2 32 0 45 -2 12 -4 2 -4 -23z"/>
<path d="M5661 4213 c-6 -32 -14 -69 -18 -81 -5 -22 -4 -23 14 -11 32 19 57
149 29 149 -8 0 -18 -21 -25 -57z"/>
<path d="M4691 4160 c0 -8 4 -24 9 -35 5 -13 9 -14 9 -5 0 8 -4 24 -9 35 -5
13 -9 14 -9 5z"/>
<path d="M1933 4041 c-10 -15 -9 -20 2 -25 11 -4 15 2 15 19 0 30 -2 31 -17 6z"/>
<path d="M1885 4040 c3 -5 11 -10 16 -10 6 0 7 5 4 10 -3 6 -11 10 -16 10 -6
0 -7 -4 -4 -10z"/>
<path d="M4536 3999 c-154 -10 -188 -19 -58 -16 54 1 94 -2 97 -8 3 -6 7 -5
11 3 7 15 70 16 80 1 4 -8 9 -7 15 2 8 14 3 30 -9 28 -4 -1 -65 -6 -136 -10z"/>
<path d="M4705 4000 c-3 -5 3 -10 14 -10 11 0 23 5 26 10 3 6 -3 10 -14 10
-11 0 -23 -4 -26 -10z"/>
<path d="M1942 3980 c0 -14 2 -19 5 -12 2 6 2 18 0 25 -3 6 -5 1 -5 -13z"/>
<path d="M4358 3983 c7 -3 16 -2 19 1 4 3 -2 6 -13 5 -11 0 -14 -3 -6 -6z"/>
<path d="M2061 3874 c0 -11 3 -14 6 -6 3 7 2 16 -1 19 -3 4 -6 -2 -5 -13z"/>
<path d="M1230 3830 c0 -5 5 -10 10 -10 6 0 10 5 10 10 0 6 -4 10 -10 10 -5 0
-10 -4 -10 -10z"/>
<path d="M4647 3823 c-3 -5 -4 -25 -2 -45 1 -21 -2 -35 -7 -32 -12 8 -10 -10
3 -23 9 -9 16 -7 29 10 28 36 30 54 9 76 -22 23 -26 25 -32 14z"/>
<path d="M1262 3798 c-16 -16 -15 -85 1 -91 9 -3 12 5 9 29 -2 19 1 41 7 48
15 18 -1 30 -17 14z"/>
<path d="M1297 3784 c-4 -4 -7 -14 -7 -23 0 -11 3 -12 11 -4 6 6 10 16 7 23
-2 6 -7 8 -11 4z"/>
<path d="M2143 3729 c-9 -9 -7 -21 5 -45 21 -46 31 -43 22 6 -9 48 -13 53 -27
39z"/>
<path d="M2032 3685 c0 -16 2 -22 5 -12 2 9 2 23 0 30 -3 6 -5 -1 -5 -18z"/>
<path d="M1230 3681 c-6 -12 -7 -21 -1 -21 10 0 24 30 17 37 -2 3 -9 -5 -16
-16z"/>
<path d="M20 3650 c14 -4 34 -8 45 -8 l20 -1 -20 9 c-11 5 -31 8 -45 8 l-25 0
25 -8z"/>
<path d="M1244 3649 c-3 -6 -2 -15 3 -20 5 -5 9 -1 9 11 0 23 -2 24 -12 9z"/>
<path d="M2020 3638 c0 -7 -3 -23 -6 -35 -4 -13 -2 -23 2 -23 5 0 10 16 11 35
2 19 1 35 -2 35 -3 0 -5 -6 -5 -12z"/>
<path d="M1251 3574 c0 -11 3 -14 6 -6 3 7 2 16 -1 19 -3 4 -6 -2 -5 -13z"/>
<path d="M2080 3558 c0 -10 2 -18 5 -18 2 0 9 8 14 18 8 14 6 19 -5 19 -7 0
-14 -9 -14 -19z"/>
<path d="M1654 3082 c11 -33 -19 -40 -44 -11 l-19 24 6 -23 c7 -28 24 -36 58
-28 29 7 32 27 9 47 -15 12 -16 11 -10 -9z"/>
<path d="M946 3039 c-4 -9 -8 -29 -10 -45 -2 -16 -4 -33 -5 -38 0 -5 -10 -1
-21 9 -20 18 -20 17 -21 -11 -1 -23 -3 -24 -6 -7 -2 12 -10 20 -17 17 -7 -3
-30 9 -51 26 -55 43 -58 26 -5 -24 85 -78 85 -79 -1 -71 -55 5 -70 4 -59 -5
11 -8 -1 -9 -47 -4 -40 4 -63 3 -63 -3 0 -14 118 -27 133 -14 14 11 112 -11
112 -25 0 -5 4 -15 9 -23 5 -8 4 -16 -5 -22 -8 -5 -9 -9 -4 -9 12 0 12 -24 1
-88 -5 -26 -12 -40 -18 -35 -7 4 -8 1 -3 -7 8 -14 -24 -132 -35 -125 -15 10
-120 21 -120 13 0 -4 12 -8 26 -8 29 0 57 -13 85 -41 10 -10 30 -21 45 -25 27
-7 77 13 68 28 -3 4 2 8 10 8 9 0 16 4 16 8 0 16 66 31 114 27 l49 -4 -28 22
c-69 54 -78 66 -65 82 13 16 35 21 25 6 -3 -5 -1 -12 4 -15 5 -4 13 -2 16 4 4
6 21 8 38 6 74 -11 188 -16 183 -8 -7 11 -108 35 -149 36 -18 0 -58 -3 -89 -7
-36 -5 -59 -4 -63 3 -3 5 -15 10 -26 10 -20 0 -39 34 -39 68 0 13 2 14 9 4 7
-11 9 -10 15 3 3 9 10 13 16 10 5 -3 10 -2 10 4 0 5 -4 13 -10 16 -23 14 -8
26 25 19 23 -4 35 -2 35 5 0 6 -14 14 -30 18 -40 7 -34 22 18 48 22 11 41 23
42 28 0 4 -18 7 -40 7 -29 0 -40 -4 -40 -15 0 -8 -4 -15 -9 -15 -5 0 -7 23 -4
53 6 57 -9 134 -21 106z m61 -453 c-5 -15 -57 -20 -70 -7 -8 8 -6 11 6 11 9 0
17 4 17 9 0 4 11 6 25 3 14 -2 24 -10 22 -16z"/>
<path d="M760 2940 c8 -5 22 -10 30 -10 13 0 13 1 0 10 -8 5 -22 10 -30 10
-13 0 -13 -1 0 -10z"/>
<path d="M1605 2880 c-3 -5 -15 -10 -25 -10 -10 0 -21 -4 -24 -9 -4 -5 4 -7
16 -4 27 7 67 33 51 33 -7 0 -15 -4 -18 -10z"/>
<path d="M0 2871 c0 -5 9 -7 20 -4 26 7 26 13 0 13 -11 0 -20 -4 -20 -9z"/>
<path d="M655 2841 c-13 -5 2 -10 52 -14 40 -3 82 -11 93 -17 12 -6 24 -9 27
-6 19 18 -136 52 -172 37z"/>
<path d="M820 2846 c0 -2 11 -6 25 -8 14 -3 25 -1 25 3 0 5 -11 9 -25 9 -14 0
-25 -2 -25 -4z"/>
<path d="M1393 2842 c-7 -4 -10 -27 -8 -56 2 -27 -3 -63 -10 -80 -7 -17 -15
-49 -18 -71 l-6 -39 21 34 c13 21 25 61 29 100 3 36 10 77 14 93 7 27 0 33
-22 19z"/>
<path d="M6033 2786 c3 -8 9 -31 13 -50 7 -43 21 -46 35 -10 7 20 6 32 -6 50
-17 26 -51 34 -42 10z"/>
<path d="M1786 2724 c-4 -10 -1 -14 6 -12 15 5 23 28 10 28 -5 0 -13 -7 -16
-16z"/>
<path d="M5730 2713 c0 -30 12 -29 26 1 10 21 9 24 -7 23 -13 -1 -19 -9 -19
-24z"/>
<path d="M1710 2619 c0 -5 5 -7 10 -4 6 3 10 8 10 11 0 2 -4 4 -10 4 -5 0 -10
-5 -10 -11z"/>
<path d="M1390 2599 c0 -5 5 -7 10 -4 6 3 10 8 10 11 0 2 -4 4 -10 4 -5 0 -10
-5 -10 -11z"/>
<path d="M1685 2590 c-3 -6 4 -9 19 -8 13 1 22 6 20 10 -7 11 -32 10 -39 -2z"/>
<path d="M1265 2570 c-16 -4 -41 -13 -55 -20 -14 -7 -27 -14 -30 -14 -3 0 -4
-7 -2 -14 2 -9 -3 -12 -16 -8 -11 4 -24 0 -31 -8 -7 -8 -46 -25 -87 -37 -40
-13 -74 -27 -74 -31 0 -7 28 -13 104 -24 39 -5 47 -4 41 6 -5 8 -4 11 2 7 12
-8 83 13 83 24 0 9 54 64 94 95 31 24 19 34 -29 24z"/>
<path d="M1700 2559 c0 -5 5 -7 10 -4 6 3 10 8 10 11 0 2 -4 4 -10 4 -5 0 -10
-5 -10 -11z"/>
<path d="M1458 2533 c6 -2 18 -2 25 0 6 3 1 5 -13 5 -14 0 -19 -2 -12 -5z"/>
<path d="M695 2439 c-4 -6 -5 -12 -2 -15 2 -3 7 2 10 11 7 17 1 20 -8 4z"/>
<path d="M6328 2422 c-14 -15 -31 -38 -38 -50 -10 -21 -9 -23 7 -20 17 3 70
84 61 93 -3 3 -16 -8 -30 -23z"/>
<path d="M657 2381 c-9 -16 -17 -42 -16 -58 0 -24 3 -22 20 21 23 57 21 79 -4
37z"/>
<path d="M6380 2385 c-10 -12 -10 -15 4 -15 9 0 16 7 16 15 0 8 -2 15 -4 15
-2 0 -9 -7 -16 -15z"/>
<path d="M856 2273 l-30 -46 40 -33 c47 -40 52 -41 60 -9 4 17 13 25 29 25 20
0 55 27 55 44 0 4 -9 4 -20 1 -11 -4 -34 -4 -50 0 -24 5 -30 12 -31 33 -2 24
-2 24 -6 5 -2 -13 -9 -23 -15 -23 -6 0 -8 10 -4 25 4 14 5 25 4 25 -2 0 -16
-21 -32 -47z"/>
<path d="M1888 2313 c6 -2 18 -2 25 0 6 3 1 5 -13 5 -14 0 -19 -2 -12 -5z"/>
<path d="M1908 2263 c12 -2 30 -2 40 0 9 3 -1 5 -23 4 -22 0 -30 -2 -17 -4z"/>
<path d="M1985 2210 c-3 -5 0 -10 7 -11 7 0 26 -2 42 -4 19 -3 26 -1 19 6 -14
14 -61 21 -68 9z"/>
<path d="M1978 2083 c7 -3 16 -2 19 1 4 3 -2 6 -13 5 -11 0 -14 -3 -6 -6z"/>
<path d="M1800 2063 c-32 -3 -50 -10 -58 -23 -11 -18 -10 -19 10 -16 13 3 39
5 58 5 26 1 31 4 20 11 -13 8 -13 10 2 10 9 0 20 5 23 10 3 6 3 9 -2 8 -4 -1
-28 -3 -53 -5z"/>
<path d="M1988 2043 c7 -3 16 -2 19 1 4 3 -2 6 -13 5 -11 0 -14 -3 -6 -6z"/>
<path d="M1815 2008 c-16 -4 -37 -5 -47 -2 -9 2 -19 0 -23 -6 -3 -5 0 -10 9
-10 8 0 16 -6 19 -12 3 -10 10 -10 28 1 13 8 38 17 54 21 25 5 27 7 10 11 -11
3 -33 2 -50 -3z"/>
<path d="M1898 1983 c7 -3 16 -2 19 1 4 3 -2 6 -13 5 -11 0 -14 -3 -6 -6z"/>
<path d="M1808 1968 c-25 -9 -26 -11 -21 -66 7 -67 8 -69 28 -52 12 10 15 10
15 -4 0 -9 8 -16 18 -15 21 1 61 17 47 19 -5 2 4 6 20 10 l30 8 -27 1 c-15 0
-33 9 -40 19 -7 11 -20 21 -28 25 -12 4 -11 6 3 6 9 1 17 6 17 12 0 6 -9 9
-20 6 -11 -3 -20 -1 -20 3 0 5 7 10 17 12 14 2 14 5 2 14 -9 8 -23 8 -41 2z"/>
<path d="M6298 1802 l3 -149 -30 -29 c-17 -16 -31 -34 -31 -41 0 -36 82 -34
134 3 25 19 25 22 26 137 0 146 -22 207 -81 222 l-24 6 3 -149z"/>
<path d="M0 1835 c0 -19 21 -19 46 0 18 14 17 14 -13 15 -23 0 -33 -5 -33 -15z"/>
<path d="M1895 1821 c-9 -16 7 -19 68 -13 38 3 54 8 45 13 -18 12 -105 11
-113 0z"/>
<path d="M1832 1811 c-10 -6 -8 -10 9 -14 28 -7 46 2 28 14 -17 11 -21 11 -37
0z"/>
<path d="M1861 1777 c-35 -35 8 -51 75 -29 37 12 43 17 28 22 -40 15 -92 18
-103 7z"/>
<path d="M1990 1740 c-18 -12 -2 -12 25 0 13 6 15 9 5 9 -8 0 -22 -4 -30 -9z"/>
<path d="M1860 1707 c0 -11 9 -21 20 -24 11 -3 20 -12 20 -20 0 -13 3 -13 15
-3 9 7 18 10 22 6 4 -3 -2 -13 -13 -21 -17 -13 -16 -14 13 -4 30 10 31 11 18
36 -8 15 -12 30 -10 34 3 4 -15 9 -40 11 -38 3 -45 0 -45 -15z"/>
<path d="M878 1692 c-10 -2 -18 -8 -18 -13 0 -13 27 -11 35 2 9 13 4 16 -17
11z"/>
<path d="M815 1670 c3 -5 14 -10 23 -10 15 0 15 2 2 10 -20 13 -33 13 -25 0z"/>
<path d="M6355 1463 c-22 -24 -45 -43 -52 -43 -7 0 -16 -6 -20 -14 -10 -17
-47 -36 -70 -36 -18 0 -53 -54 -53 -81 0 -6 -29 -53 -65 -105 -63 -90 -91
-114 -145 -127 -14 -4 -34 -14 -45 -25 -32 -29 -123 -60 -225 -78 -98 -16
-130 -27 -130 -45 0 -5 12 -32 26 -60 21 -39 25 -59 21 -94 -4 -38 -2 -45 13
-45 22 0 44 25 35 40 -3 6 -3 35 0 65 6 47 11 56 31 61 13 4 31 1 39 -6 13
-11 13 -15 0 -33 -19 -27 -19 -96 0 -121 24 -31 19 -65 -11 -76 -34 -13 -110
-13 -135 1 -27 14 -69 -13 -69 -43 0 -28 -13 -14 -30 32 -7 19 -18 41 -23 48
-11 14 -17 1 -62 -139 -24 -73 -57 -120 -73 -105 -4 4 -16 40 -27 79 -13 44
-26 73 -35 74 -9 2 -26 -17 -43 -48 -23 -42 -27 -58 -22 -94 4 -23 3 -45 -2
-48 -4 -3 -39 16 -77 41 -67 45 -72 47 -153 51 -71 3 -83 1 -83 -13 0 -9 -18
-27 -41 -42 -37 -23 -41 -29 -35 -56 3 -17 6 -38 6 -48 0 -15 18 -18 143 -26
135 -9 142 -10 145 -31 3 -21 5 -21 44 -7 55 19 68 18 68 -7 0 -33 29 -88 84
-162 51 -68 51 -68 68 -47 10 12 15 27 11 33 -9 15 65 1 120 -22 25 -11 48
-16 52 -13 4 4 -40 29 -96 57 -57 27 -105 56 -107 63 -3 11 0 12 14 4 24 -12
68 6 108 43 26 24 37 27 94 26 35 -1 74 -6 85 -13 12 -6 35 -14 52 -18 18 -3
31 -13 33 -24 4 -18 -54 -144 -72 -157 -4 -4 -3 -9 2 -13 12 -7 20 1 65 69 54
83 75 130 70 156 -4 21 3 27 47 47 l51 24 -6 39 c-4 23 -3 39 3 39 14 0 22
-26 22 -76 0 -28 4 -44 13 -44 6 0 3 -6 -7 -12 -15 -8 -21 -8 -24 1 -2 7 -12
2 -23 -13 -26 -33 -24 -41 7 -21 20 13 28 14 40 5 11 -10 15 -8 20 6 3 11 14
41 25 68 10 27 19 64 19 83 0 19 14 70 32 114 30 78 31 81 15 115 -9 18 -12
34 -7 34 10 0 51 61 144 215 36 61 107 160 156 222 l91 112 -3 154 -3 154 -40
-44z m-365 -833 c0 -13 -7 -20 -18 -20 -10 0 -22 -3 -26 -7 -3 -4 -14 -8 -22
-9 -11 -2 -7 7 12 27 32 34 54 37 54 9z m-470 -161 c0 -25 -5 -39 -13 -39 -11
0 -15 46 -8 88 1 2 6 0 11 -3 6 -3 10 -24 10 -46z m230 -219 c13 -9 13 -11 0
-20 -24 -16 -40 -12 -40 10 0 22 16 26 40 10z"/>
<path d="M5112 1310 c-43 -10 -46 -14 -27 -34 11 -11 32 -16 68 -15 l52 2 -52
6 c-73 9 -80 24 -8 17 283 -28 336 -29 375 -12 32 14 33 15 10 16 -14 0 -90 7
-170 15 -160 16 -199 17 -248 5z"/>
<path d="M6358 979 c-28 -31 -72 -43 -48 -14 9 11 10 15 0 15 -19 0 -130 -111
-166 -166 -55 -85 -75 -126 -70 -140 3 -7 -1 -26 -8 -41 -8 -15 -16 -58 -19
-95 -5 -63 -20 -129 -37 -173 -15 -37 -21 -70 -30 -180 -5 -60 -12 -127 -16
-148 -4 -25 -3 -37 5 -37 6 0 11 17 12 38 0 20 4 46 8 56 7 18 8 18 14 -5 4
-13 7 -39 7 -56 l0 -33 195 0 195 0 0 505 c0 278 -3 504 -7 504 -5 -1 -20 -14
-35 -30z"/>
<path d="M4045 440 c-3 -5 1 -10 10 -10 9 0 13 5 10 10 -3 6 -8 10 -10 10 -2
0 -7 -4 -10 -10z"/>
<path d="M4150 270 c-7 -17 -10 -41 -7 -56 4 -23 2 -25 -22 -20 l-26 6 28 -15
c31 -18 30 -16 18 -48 -8 -20 -6 -27 6 -31 9 -4 16 -5 17 -4 34 77 56 104 95
118 47 17 51 26 16 42 -14 6 -25 15 -25 20 0 4 -9 3 -19 -4 -15 -9 -24 -8 -44
5 -24 16 -25 15 -37 -13z"/>
<path d="M3830 240 c-12 -8 -11 -10 8 -10 12 0 22 5 22 10 0 13 -11 13 -30 0z"/>
<path d="M5900 185 c-8 -14 -53 -60 -102 -101 -48 -42 -88 -77 -88 -80 0 -2
38 -4 84 -4 l83 0 17 62 c16 61 29 148 23 148 -2 0 -10 -11 -17 -25z"/>
<path d="M4673 172 c-26 -35 -63 -108 -74 -144 l-8 -28 115 0 c112 0 114 0
102 20 -7 11 -19 18 -26 15 -19 -7 -60 15 -68 39 -4 11 -9 39 -11 61 -4 49 -6
65 -8 65 -1 0 -10 -13 -22 -28z"/>
<path d="M4070 90 c0 -5 5 -10 11 -10 5 0 7 5 4 10 -3 6 -8 10 -11 10 -2 0 -4
-4 -4 -10z"/>
<path d="M4116 72 c-2 -4 -1 -14 5 -22 12 -20 11 -31 -2 -27 -6 1 -14 -4 -16
-10 -3 -8 4 -13 20 -13 20 0 26 6 30 32 5 37 -21 65 -37 40z"/>
</g>
</svg>
